<svg xmlns="http://www.w3.org/2000/svg" xmlns:xlink="http://www.w3.org/1999/xlink" viewBox="0 0 387 353.09"><defs><style>.c854c92b-2f35-4b5c-9251-ee30baf962ec{fill:url(#c2ace488-207a-4f72-8fd0-7efb1daebfa9);}.\39 a125ebd-8075-4cb6-86a3-1ade982af70d{fill:url(#99196c1d-ec9b-4441-b389-d96b4a94bcc0);}</style><linearGradient id="c2ace488-207a-4f72-8fd0-7efb1daebfa9" x1="-124.99" y1="417.88" x2="-125.66" y2="417.33" gradientTransform="matrix(384.03, 0, 0, -350.38, 48261.54, 146396.93)" gradientUnits="userSpaceOnUse"><stop offset="0" stop-color="#007dc4"/><stop offset="1" stop-color="#0092d5"/></linearGradient><linearGradient id="99196c1d-ec9b-4441-b389-d96b4a94bcc0" x1="-132.81" y1="409.19" x2="-132.82" y2="409.19" gradientTransform="matrix(384.03, 0, 0, -350.38, 48264.51, 146399.65)" gradientUnits="userSpaceOnUse"><stop offset="0" stop-color="#0092d5"/><stop offset="1" stop-color="#007dc4"/></linearGradient></defs><title>Asset 1</title><g id="b213e1be-c7e1-47ff-a98c-26d0fe8d0147" data-name="Layer 2"><g id="4ddf1d43-a7c6-43f8-8b31-c08d63969560" data-name="Layer 1"><path class="c854c92b-2f35-4b5c-9251-ee30baf962ec" d="M377.32,0H9.68A9.68,9.68,0,0,0,0,9.68V343.41a9.64,9.64,0,0,0,3,7L384,2.71A9.64,9.64,0,0,0,377.32,0Z"/><path class="9a125ebd-8075-4cb6-86a3-1ade982af70d" d="M384,2.71,3,350.38a9.64,9.64,0,0,0,6.71,2.71H377.32a9.68,9.68,0,0,0,9.68-9.68h0V9.68A9.64,9.64,0,0,0,384,2.71Z"/></g></g></svg>