<svg height="111.387" viewBox="0 0 98.377 111.387" width="98.377" xmlns="http://www.w3.org/2000/svg" xmlns:xlink="http://www.w3.org/1999/xlink"><clipPath id="a"><path d="m0-21.293h98.377v111.386h-98.377z" transform="translate(0 21.293)"/></clipPath><g clip-path="url(#a)" fill="#03a2de" fill-rule="evenodd"><path d="m.6 89.772-.074-94.835.01.005.01-1.752 33.96 19.6-.042 42.9-7.7 4.431-.264-42.706-5.32-3.071v49l-7.565 4.356v-57.719l-5.08-2.934.065 69.307 30.7-17.676a.36.36 0 0 0 .162-.293l.052-48.309a.345.345 0 0 0 -.167-.293l-30.21-17.248a7.848 7.848 0 0 1 -1.114.265 7.056 7.056 0 0 1 -8.077-5.857 7.054 7.054 0 0 1 5.854-8.071 7.054 7.054 0 0 1 8.072 5.854 7.143 7.143 0 0 1 .058 1.763l30.654 17.5a5.578 5.578 0 0 1 2.563 4.452l-.058 51.589a5.093 5.093 0 0 1 -.743 2.537 5.16 5.16 0 0 1 -1.826 1.9zm8.469-104.283a2.19 2.19 0 0 0 -2.5-1.81 2.19 2.19 0 0 0 -1.815 2.5 2.19 2.19 0 0 0 2.5 1.815 2.192 2.192 0 0 0 1.815-2.506" transform="translate(51.225 21.217)"/><path d="m31.784 89.526a7.111 7.111 0 0 1 -6.372-7.412l-30.3-17.5a5.544 5.544 0 0 1 -2.568-4.431l-.056-51.593a5.555 5.555 0 0 1 2.563-4.446l43.711-25.3.338 90.83v-.005l-.063 5.686-7.794-4.5.026-33.291h-18.097v22.867l-7.993-4.619-.047-42.9 8.04-4.52v21.484h18.1l.028-37.889-31.007 17.948a.311.311 0 0 0 -.157.288l.047 48.314a.332.332 0 0 0 .167.288l29.5 17.033a7.03 7.03 0 0 1 3.395-.481 7.113 7.113 0 1 1 -1.459 14.15m2.882-6.853a2.161 2.161 0 1 0 -2.376 1.926 2.16 2.16 0 0 0 2.375-1.925" transform="translate(7.511 21.822)"/></g></svg>