<svg height="36.143" viewBox="0 0 116.943 36.143" width="116.943" xmlns="http://www.w3.org/2000/svg" xmlns:xlink="http://www.w3.org/1999/xlink"><clipPath id="a"><path d="m0-56.024h116.943v36.143h-116.943z" transform="translate(0 56.024)"/></clipPath><g clip-path="url(#a)" fill="#fff" transform="translate(0 -.001)"><path d="m-1.055 0a.285.285 0 0 1 .322.322v3.809h6.854v-3.809a.285.285 0 0 1 .322-.322h1.582c.225 0 .337.108.337.322v9.609q0 .322-.337.323h-1.582a.285.285 0 0 1 -.322-.323v-3.9h-6.854v3.9a.285.285 0 0 1 -.322.323h-1.582q-.338 0-.337-.323v-9.609c0-.214.112-.322.337-.322z" transform="translate(41.423 7.03)"/><path d="m-4.745 0a7.35 7.35 0 0 1 1.9.213 2.941 2.941 0 0 1 1.271.673 2.64 2.64 0 0 1 .711 1.194 6.292 6.292 0 0 1 .219 1.788v2.519a6.365 6.365 0 0 1 -.219 1.794 2.637 2.637 0 0 1 -.71 1.2 2.886 2.886 0 0 1 -1.274.667 7.585 7.585 0 0 1 -1.9.205h-4.523a7.491 7.491 0 0 1 -1.889-.205 2.881 2.881 0 0 1 -1.266-.667 2.689 2.689 0 0 1 -.718-1.2 6.185 6.185 0 0 1 -.226-1.794v-2.519a6.114 6.114 0 0 1 .226-1.788 2.693 2.693 0 0 1 .717-1.194 2.936 2.936 0 0 1 1.267-.673 7.259 7.259 0 0 1 1.889-.213zm-6.385 6.226a4.116 4.116 0 0 0 .095.959 1.315 1.315 0 0 0 .315.615 1.221 1.221 0 0 0 .594.322 3.918 3.918 0 0 0 .944.1h4.35a3.922 3.922 0 0 0 .944-.1 1.216 1.216 0 0 0 .593-.322 1.31 1.31 0 0 0 .315-.615 4.116 4.116 0 0 0 .095-.959v-2.2a4.118 4.118 0 0 0 -.095-.96 1.313 1.313 0 0 0 -.315-.615 1.221 1.221 0 0 0 -.593-.322 3.922 3.922 0 0 0 -.944-.1h-4.35a3.918 3.918 0 0 0 -.944.1 1.226 1.226 0 0 0 -.594.322 1.318 1.318 0 0 0 -.315.615 4.118 4.118 0 0 0 -.095.96z" transform="translate(64.968 7.03)"/><path d="m-1.434 0a4.9 4.9 0 0 1 .586.03 1.132 1.132 0 0 1 .409.124 1.366 1.366 0 0 1 .339.263 4.649 4.649 0 0 1 .365.447l5.447 7.148a.2.2 0 0 0 .19.1h.132c.078 0 .117-.048.117-.146v-7.644a.285.285 0 0 1 .323-.322h1.538a.285.285 0 0 1 .322.322v8.409a1.7 1.7 0 0 1 -.322 1.208 1.379 1.379 0 0 1 -1 .315h-1.255a4.421 4.421 0 0 1 -.564-.03 1.233 1.233 0 0 1 -.4-.117 1.318 1.318 0 0 1 -.344-.256 4.311 4.311 0 0 1 -.388-.461l-5.461-7.149a.249.249 0 0 0 -.19-.1h-.132c-.078 0-.118.048-.118.146v7.644a.285.285 0 0 1 -.322.323h-1.538q-.337 0-.337-.323v-8.407a1.7 1.7 0 0 1 .318-1.209 1.377 1.377 0 0 1 1-.315z" transform="translate(70.179 7.03)"/><path d="m-5.8 0c.225 0 .337.108.337.322v1.392q0 .322-.337.322h-6.4a3.918 3.918 0 0 0 -.944.1 1.277 1.277 0 0 0 -.6.322 1.246 1.246 0 0 0 -.315.615 4.471 4.471 0 0 0 -.087.96v.146h8.275a.285.285 0 0 1 .321.321v1.154a.285.285 0 0 1 -.323.323h-8.275v.249a4.469 4.469 0 0 0 .087.959 1.243 1.243 0 0 0 .315.615 1.272 1.272 0 0 0 .6.322 3.918 3.918 0 0 0 .944.1h6.4c.225 0 .337.108.337.322v1.387q0 .322-.337.323h-6.444a7.491 7.491 0 0 1 -1.889-.205 2.881 2.881 0 0 1 -1.265-.667 2.676 2.676 0 0 1 -.717-1.2 6.161 6.161 0 0 1 -.227-1.794v-2.52a6.09 6.09 0 0 1 .227-1.788 2.68 2.68 0 0 1 .717-1.194 2.936 2.936 0 0 1 1.267-.673 7.259 7.259 0 0 1 1.889-.213z" transform="translate(96.689 7.03)"/><path d="m-5.7 0a.285.285 0 0 1 .323.322v1.392a.285.285 0 0 1 -.323.322h-7.337a.727.727 0 0 0 -.6.22.938.938 0 0 0 -.175.6v.5q0 .821.761.821h5.492a2.585 2.585 0 0 1 1.919.652 2.544 2.544 0 0 1 .644 1.868v1.169a2.4 2.4 0 0 1 -.629 1.728 2.6 2.6 0 0 1 -1.963.659h-8.112q-.337 0-.337-.323v-1.39c0-.214.112-.322.337-.322h7.689a.727.727 0 0 0 .6-.22.938.938 0 0 0 .175-.6v-.598q0-.82-.761-.82h-5.492a2.583 2.583 0 0 1 -1.919-.652 2.544 2.544 0 0 1 -.644-1.867v-1.073a2.4 2.4 0 0 1 .63-1.728 2.6 2.6 0 0 1 1.965-.66z" transform="translate(108.785 7.03)"/><path d="m-6.477 0c.225 0 .337.108.337.322v1.436a.3.3 0 0 1 -.337.337h-4.6v7.836a.285.285 0 0 1 -.322.323h-1.6a.285.285 0 0 1 -.322-.323v-7.836h-4.6a.3.3 0 0 1 -.337-.337v-1.436c0-.214.112-.322.337-.322z" transform="translate(123.083 7.03)"/><path d="m-.133-19.81-.026-30.772v-.57l11.019 6.361-.014 13.919-2.5 1.438-.077-13.854-1.726-1v15.9l-2.454 1.415v-18.727l-1.649-.953.023 22.489 9.96-5.735a.116.116 0 0 0 .053-.094l.017-15.676a.111.111 0 0 0 -.054-.095l-9.8-5.6a2.376 2.376 0 0 1 -.361.085 2.288 2.288 0 0 1 -2.619-1.9 2.289 2.289 0 0 1 1.9-2.62 2.291 2.291 0 0 1 2.62 1.9 2.3 2.3 0 0 1 .018.571l9.946 5.68a1.8 1.8 0 0 1 .827 1.448l-.019 16.74a1.649 1.649 0 0 1 -.24.823 1.674 1.674 0 0 1 -.593.619zm2.746-33.837a.71.71 0 0 0 -.811-.588.709.709 0 0 0 -.589.811.71.71 0 0 0 .812.589.711.711 0 0 0 .588-.812" fill-rule="evenodd" transform="translate(16.95 55.824)"/><path d="m-7.014-19.756a2.309 2.309 0 0 1 -2.068-2.406l-9.829-5.677a1.8 1.8 0 0 1 -.834-1.439l-.019-16.741a1.8 1.8 0 0 1 .832-1.442l14.183-8.212.109 29.473-.02 1.846-2.53-1.46.008-10.8h-5.871v7.414l-2.593-1.5-.015-13.919 2.608-1.466v6.969h5.873l.01-12.3-10.062 5.823a.1.1 0 0 0 -.052.095l.015 15.677a.106.106 0 0 0 .054.092l9.571 5.528a2.291 2.291 0 0 1 1.1-.157 2.31 2.31 0 0 1 2.064 2.543 2.309 2.309 0 0 1 -2.533 2.059m.935-2.224a.7.7 0 0 0 -.624-.767.7.7 0 0 0 -.77.624.7.7 0 0 0 .624.768.7.7 0 0 0 .77-.625" fill-rule="evenodd" transform="translate(19.764 55.887)"/><path d="m-1.508 0a2.7 2.7 0 0 1 .526.045.964.964 0 0 1 .387.169 1.223 1.223 0 0 1 .295.338 3.67 3.67 0 0 1 .269.565l2.884 7.051a.2.2 0 0 0 .194.132h.166a.2.2 0 0 0 .194-.132l2.879-7.051a3.6 3.6 0 0 1 .27-.565 1.2 1.2 0 0 1 .3-.338.956.956 0 0 1 .379-.169 2.593 2.593 0 0 1 .519-.045h1.482a1.13 1.13 0 0 1 .964.346 2.086 2.086 0 0 1 .249 1.182v8.432a.283.283 0 0 1 -.318.323h-1.408c-.2 0-.3-.108-.3-.323v-7.668c0-.1-.037-.147-.111-.147h-.128a.172.172 0 0 0 -.184.118l-2.8 6.58a4.29 4.29 0 0 1 -.339.668 2.045 2.045 0 0 1 -.374.448 1.164 1.164 0 0 1 -.457.25 2.214 2.214 0 0 1 -.6.073h-.66a2.219 2.219 0 0 1 -.6-.073 1.164 1.164 0 0 1 -.457-.25 2.065 2.065 0 0 1 -.374-.448 4.466 4.466 0 0 1 -.339-.667l-2.8-6.58a.171.171 0 0 0 -.18-.118h-.12c-.074 0-.111.05-.111.147v7.667q0 .323-.305.323h-1.415a.284.284 0 0 1 -.319-.323v-8.432a2.09 2.09 0 0 1 .25-1.182 1.148 1.148 0 0 1 .982-.346z" transform="translate(42.699 19.132)"/><path d="m-1 0c.2 0 .3.108.3.323v9.637c0 .215-.1.323-.3.323h-1.5a.284.284 0 0 1 -.318-.323v-9.637a.284.284 0 0 1 .325-.323z" transform="translate(59.713 19.132)"/><path d="m-1.356 0a4.365 4.365 0 0 1 .556.03 1.048 1.048 0 0 1 .386.125 1.319 1.319 0 0 1 .314.264 4.586 4.586 0 0 1 .351.448l5.149 7.169a.19.19 0 0 0 .18.1h.125c.074 0 .111-.049.111-.146v-7.667c0-.215.1-.323.3-.323h1.458c.2 0 .305.108.305.323v8.433a1.777 1.777 0 0 1 -.305 1.212 1.255 1.255 0 0 1 -.941.315h-1.19a4.073 4.073 0 0 1 -.533-.029 1.155 1.155 0 0 1 -.381-.117 1.276 1.276 0 0 1 -.329-.258 4.335 4.335 0 0 1 -.366-.463l-5.162-7.168a.231.231 0 0 0 -.179-.1h-.125c-.074 0-.111.05-.111.147v7.665q0 .323-.305.323h-1.452a.284.284 0 0 1 -.32-.323v-8.432a1.777 1.777 0 0 1 .3-1.211 1.251 1.251 0 0 1 .946-.317z" transform="translate(66.546 19.132)"/><path d="m-1 0c.2 0 .3.108.3.323v9.637c0 .215-.1.323-.3.323h-1.5a.283.283 0 0 1 -.318-.323v-9.637a.284.284 0 0 1 .324-.323z" transform="translate(81.039 19.132)"/><path d="m-1.356 0a4.365 4.365 0 0 1 .556.03 1.051 1.051 0 0 1 .386.125 1.3 1.3 0 0 1 .314.264 4.488 4.488 0 0 1 .35.448l5.15 7.169a.192.192 0 0 0 .181.1h.125c.074 0 .111-.049.111-.146v-7.667c0-.215.1-.323.305-.323h1.452c.2 0 .3.108.3.323v8.433a1.778 1.778 0 0 1 -.3 1.212 1.255 1.255 0 0 1 -.941.315h-1.19a4.066 4.066 0 0 1 -.533-.029 1.164 1.164 0 0 1 -.381-.117 1.287 1.287 0 0 1 -.329-.258 4.425 4.425 0 0 1 -.366-.463l-5.162-7.168a.231.231 0 0 0 -.179-.1h-.125c-.074 0-.111.05-.111.147v7.665q0 .323-.305.323h-1.452a.283.283 0 0 1 -.32-.323v-8.432a1.777 1.777 0 0 1 .3-1.211 1.251 1.251 0 0 1 .946-.317z" transform="translate(87.896 19.132)"/><path d="m-5.994 0c.2 0 .305.108.305.323v1.44q0 .338-.305.338h-6.936a3.519 3.519 0 0 0 -.893.095 1.139 1.139 0 0 0 -.561.324 1.333 1.333 0 0 0 -.3.609 4.33 4.33 0 0 0 -.091.97v2.115a4.438 4.438 0 0 0 .091.977 1.335 1.335 0 0 0 .3.616 1.139 1.139 0 0 0 .561.324 3.519 3.519 0 0 0 .893.095h4.569a.653.653 0 0 0 .527-.2 1.115 1.115 0 0 0 .165-.7v-1.186c0-.127-.055-.19-.165-.19h-4.057q-.3 0-.305-.339v-1.101q0-.338.305-.337h5.773q.416 0 .415.441v3.422a2.658 2.658 0 0 1 -.443 1.741 1.6 1.6 0 0 1 -1.275.506h-5.593a6.716 6.716 0 0 1 -1.786-.205 2.685 2.685 0 0 1 -1.2-.669 2.733 2.733 0 0 1 -.679-1.2 6.534 6.534 0 0 1 -.215-1.8v-2.53a6.462 6.462 0 0 1 .215-1.792 2.736 2.736 0 0 1 .679-1.198 2.731 2.731 0 0 1 1.2-.675 6.482 6.482 0 0 1 1.787-.214z" transform="translate(116.121 19.132)"/></g></svg>