<svg viewBox="0 0 1981.85 562.09" xmlns="http://www.w3.org/2000/svg"><path d="m1957 45.61-.05.09c-1.46 2.74-16.38 32.23-16.38 32.23s.59-18.68-5.64-30.78c-10.62-20.6-47.11-27.35-75.62 18.06-14.15 22.55-24.26 76.28 16.65 83.21 39.31 6.67 61.11-31.57 61.11-31.57s-2.84 31 15.83 31c17.9 0 23.41-32.54 23.42-32.54a3.35 3.35 0 0 0 -4.16 2.27c-.95 3.15-3.82 19.71-16.63 16.33-14.71-3.91-10.53-29.1-10.53-29.19 6.48-12.19 13.07-24.32 19.63-36.47l16.92-31.32a6.07 6.07 0 0 0 .28-.61s-18-3-24.89 9.29zm-26.1 49.74c-1.84 4.94-20.54 52.92-45.82 46.34-29.46-7.67-21.26-56.09-6.91-77.07 13-19 31-27.71 43.4-21.92 19.65 9.21 9.6 52.07 9.33 52.65zm-1303.1 14q5 0 5 5v59.23h106.6v-59.24q0-5 5-5h24.6q5.23 0 5.23 5v149.44q0 5-5.23 5h-24.6q-5 0-5-5v-60.6h-106.59v60.6q0 5-5 5h-24.6c-3.5 0-5.24-1.67-5.24-5v-149.44c0-3.34 1.74-5 5.24-5zm209.49 96.82a63.52 63.52 0 0 0 1.48 14.91 20.32 20.32 0 0 0 4.9 9.57 19 19 0 0 0 9.22 5 61.18 61.18 0 0 0 14.69 1.48h67.65a61.17 61.17 0 0 0 14.69-1.48 19 19 0 0 0 9.22-5 20.41 20.41 0 0 0 4.9-9.57 63.57 63.57 0 0 0 1.48-14.91v-34.17a63.7 63.7 0 0 0 -1.52-15 20.42 20.42 0 0 0 -4.9-9.57 19.05 19.05 0 0 0 -9.22-5 61.18 61.18 0 0 0 -14.65-1.43h-67.65a60.67 60.67 0 0 0 -14.69 1.48 19.05 19.05 0 0 0 -9.22 5 20.51 20.51 0 0 0 -4.9 9.57 63.64 63.64 0 0 0 -1.48 14.95zm99.31-96.82q17.31 0 29.5 3.31t19.82 10.48a41 41 0 0 1 11 18.56q3.44 11.38 3.42 27.8v39.18q0 16.39-3.42 27.9a41 41 0 0 1 -11 18.67q-7.63 7.17-19.82 10.37t-29.5 3.19h-70.38q-17.31 0-29.38-3.19t-19.7-10.37a41.85 41.85 0 0 1 -11.14-18.69q-3.52-11.51-3.53-27.9v-39.18q0-16.42 3.53-27.8a41.85 41.85 0 0 1 11.16-18.56q7.62-7.18 19.7-10.48t29.38-3.31zm132.53 0a76.23 76.23 0 0 1 9.11.46 17.7 17.7 0 0 1 6.37 1.94 21.55 21.55 0 0 1 5.25 4.1 72.77 72.77 0 0 1 5.69 6.95l84.73 111.16a3.13 3.13 0 0 0 3 1.6h2.05c1.22 0 1.82-.76 1.82-2.28v-118.94c0-3.34 1.68-5 5-5h23.92q5 0 5 5v130.76q0 13.9-5 18.8t-15.49 4.89h-19.58a69 69 0 0 1 -8.77-.46 19.23 19.23 0 0 1 -6.27-1.82 20.67 20.67 0 0 1 -5.35-4 69.35 69.35 0 0 1 -6-7.17l-85-111.17a3.9 3.9 0 0 0 -3-1.59h-2.05c-1.21 0-1.83.76-1.83 2.28v118.92c0 3.34-1.66 5-5 5h-23.91q-5.23 0-5.23-5v-130.78c0-9.26 1.67-15.54 5-18.8s8.51-4.9 15.5-4.9zm344.38 0q5.23 0 5.23 5v21.65q0 5-5.23 5h-99.51a60.52 60.52 0 0 0 -14.68 1.48 19.88 19.88 0 0 0 -9.35 5 19.31 19.31 0 0 0 -4.9 9.57 69 69 0 0 0 -1.36 14.93v2.28h128.68c3.34 0 5 1.66 5 5v18c0 3.35-1.68 5-5 5h-128.7v3.88a68.89 68.89 0 0 0 1.36 14.91 19.22 19.22 0 0 0 4.9 9.57 19.8 19.8 0 0 0 9.35 5 61.09 61.09 0 0 0 14.68 1.48h99.53q5.23 0 5.23 5v21.65q0 5-5.23 5h-100.22q-17.31 0-29.38-3.19t-19.7-10.37a41.85 41.85 0 0 1 -11.16-18.67q-3.54-11.51-3.53-27.9v-39.13q0-16.42 3.53-27.8a41.85 41.85 0 0 1 11.16-18.56q7.62-7.18 19.7-10.48t29.38-3.31h100.22zm189.75 0c3.35 0 5 1.67 5 5v21.65c0 3.34-1.66 5-5 5h-114.11q-6.6 0-9.34 3.42t-2.73 9.34v7.75q0 12.76 11.84 12.76h85.41q19.83 0 29.84 10.13t10 29v18.22q0 16.62-9.79 26.88t-30.52 10.25h-126.16q-5.23 0-5.24-5v-21.61q0-5 5.24-5h119.58c4.41 0 7.51-1.14 9.34-3.41s2.73-5.39 2.73-9.34v-9.39q0-12.75-11.84-12.76h-85.41q-19.81 0-29.84-10.14t-10-29v-16.64q0-16.62 9.79-26.88t30.52-10.25zm210.21 0q5.23 0 5.24 5v22.33q0 5.24-5.24 5.24h-71.47v121.87q0 5-5 5h-24.83q-5 0-5-5v-121.88h-71.57c-3.5 0-5.24-1.75-5.24-5.24v-22.33c0-3.34 1.74-5 5.24-5zm-1509.21-75.49a11 11 0 1 0 -9.16 12.64 11 11 0 0 0 9.16-12.64m-42.71 526.23-.4-478.57h.06v-8.86l171.37 98.93-.21 216.47-38.84 22.37-1.3-215.43-26.85-15.49v247.21l-38.17 22v-291.29l-25.64-14.81.35 349.75 154.89-89.19a1.8 1.8 0 0 0 .82-1.47l.26-243.8a1.72 1.72 0 0 0 -.84-1.47l-152.45-87.04a37.37 37.37 0 0 1 -5.6 1.32 35.58 35.58 0 1 1 29.53-40.72 35.94 35.94 0 0 1 .28 8.89l154.68 88.34c7.33 4.24 13 14 12.94 22.45l-.29 260.32a25.66 25.66 0 0 1 -3.74 12.8 26.12 26.12 0 0 1 -9.22 9.62zm-48.72-32.77a10.9 10.9 0 1 0 -12 9.72 10.88 10.88 0 0 0 12-9.72m-14.53 34.58a35.91 35.91 0 0 1 -32.17-37.41l-152.87-88.28c-7.31-4.19-13-14-13-22.38l-.26-260.35c0-8.48 5.62-18.2 12.94-22.48l220.57-127.65 1.69 458.39-.31 28.71-39.34-22.7.12-168h-91.31v115.34l-40.36-23.29-.23-216.48 40.55-22.8v108.39h91.38l.17-191.21-156.48 90.56a1.62 1.62 0 0 0 -.81 1.47l.23 243.8a1.64 1.64 0 0 0 .85 1.44l148.85 86a35.89 35.89 0 1 1 9.79 69m442.31-264.43a42.19 42.19 0 0 1 8.18.69 14.9 14.9 0 0 1 6 2.63 19.2 19.2 0 0 1 4.64 5.25 56.39 56.39 0 0 1 4.18 8.79l44.79 109.66a3 3 0 0 0 3 2.06h2.6a3.06 3.06 0 0 0 3-2.06l44.82-109.66a57.16 57.16 0 0 1 4.2-8.79 18.55 18.55 0 0 1 4.62-5.25 14.78 14.78 0 0 1 5.93-2.63 40.51 40.51 0 0 1 8.07-.69h23q11.19 0 15.06 5.38t3.87 18.38v131.13c0 3.36-1.64 5-4.94 5h-22c-3.15 0-4.74-1.68-4.74-5v-119.24c0-1.52-.57-2.28-1.72-2.28h-1.92a2.66 2.66 0 0 0 -2.81 1.83l-43.44 102.34a66.53 66.53 0 0 1 -5.28 10.39 31.85 31.85 0 0 1 -5.81 7 18 18 0 0 1 -7.11 3.89 34.18 34.18 0 0 1 -9.37 1.14h-10.29a34.15 34.15 0 0 1 -9.36-1.14 18.08 18.08 0 0 1 -7.11-3.89 31.68 31.68 0 0 1 -5.82-7 69.77 69.77 0 0 1 -5.27-10.39l-43.5-102.34a2.66 2.66 0 0 0 -2.8-1.83h-1.93c-1.15 0-1.72.77-1.72 2.28v119.24c0 3.36-1.58 5-4.74 5h-22q-5 0-5-5v-131.13q0-13 3.88-18.38t15.28-5.38zm272.53 0c3.16 0 4.73 1.68 4.73 5v149.89c0 3.36-1.57 5-4.73 5h-23.25q-4.95 0-5-5v-149.86c0-3.34 1.65-5 5-5zm100.71 0a66 66 0 0 1 8.61.47 16.34 16.34 0 0 1 6 1.94 20.35 20.35 0 0 1 5 4.1 71.46 71.46 0 0 1 5.39 7l80.1 111.49a2.94 2.94 0 0 0 2.79 1.6h1.95c1.15 0 1.72-.76 1.72-2.28v-119.29c0-3.34 1.58-5 4.74-5h22.6q4.74 0 4.74 5v131.14q0 13.92-4.74 18.84t-14.64 4.91h-18.52a63.64 63.64 0 0 1 -8.29-.45 17.79 17.79 0 0 1 -5.92-1.83 19.65 19.65 0 0 1 -5.06-4 67.53 67.53 0 0 1 -5.7-7.19l-80.33-111.49a3.61 3.61 0 0 0 -2.79-1.6h-1.94c-1.15 0-1.72.77-1.72 2.28v119.24c0 3.36-1.59 5-4.74 5h-22.6q-5 0-5-5v-131.12q0-13.94 4.74-18.84t14.64-4.92zm230.95 0c3.16 0 4.72 1.68 4.72 5v149.89c0 3.36-1.56 5-4.72 5h-23.27c-3.3 0-4.94-1.68-4.94-5v-149.86c0-3.34 1.64-5 4.94-5zm101.08 0a66 66 0 0 1 8.61.47 16.4 16.4 0 0 1 6 1.94 20.31 20.31 0 0 1 4.95 4.1 71.46 71.46 0 0 1 5.39 7l80.17 111.46a3 3 0 0 0 2.8 1.6h1.94c1.15 0 1.72-.76 1.72-2.28v-119.26c0-3.34 1.58-5 4.74-5h22.59q4.74 0 4.74 5v131.14q0 13.92-4.74 18.84t-14.64 4.91h-18.55a63.53 63.53 0 0 1 -8.29-.45 17.92 17.92 0 0 1 -5.93-1.83 19.82 19.82 0 0 1 -5.06-4 68.93 68.93 0 0 1 -5.69-7.19l-80.33-111.49a3.61 3.61 0 0 0 -2.79-1.6h-1.94c-1.16 0-1.72.77-1.72 2.28v119.24c0 3.36-1.59 5-4.74 5h-22.61c-3.31 0-4.95-1.68-4.95-5v-131.12q0-13.94 4.73-18.84t14.65-4.92zm366.83 0q4.74 0 4.74 5v22.46q0 5.27-4.74 5.26h-107.87a54.36 54.36 0 0 0 -13.89 1.48 17.68 17.68 0 0 0 -8.72 5 20.68 20.68 0 0 0 -4.62 9.48 66.85 66.85 0 0 0 -1.42 15.07v32.9a68.53 68.53 0 0 0 1.42 15.2 20.76 20.76 0 0 0 4.62 9.59 17.76 17.76 0 0 0 8.72 5 54.42 54.42 0 0 0 13.89 1.48h71.05c3.73 0 6.47-1 8.19-3.08s2.57-5.68 2.57-10.86v-18.52c0-2-.86-3-2.57-3h-63.08q-4.74 0-4.74-5.26v-17.06c0-3.51 1.58-5.25 4.74-5.25h89.79q6.47 0 6.46 6.85v53.22q0 19.18-6.89 27.07c-4.6 5.25-11.19 7.88-19.82 7.88h-87q-16.35 0-27.78-3.19a41.69 41.69 0 0 1 -18.62-10.4 42.54 42.54 0 0 1 -10.56-18.73q-3.33-11.54-3.34-28v-39.27q0-16.44 3.34-27.87a40 40 0 0 1 29.18-29.12q11.43-3.31 27.78-3.32h109.18z" fill="#fff"/></svg>