<svg height="30.353" viewBox="0 0 25.447 30.353" width="25.447" xmlns="http://www.w3.org/2000/svg"><g fill="#fff"><path d="m2194.96-2478.193h-23.66a.9.9 0 0 1 -.9-.9.9.9 0 0 1 .9-.9c2.8 0 3.464-3.856 3.531-7.09v-6.6a8.307 8.307 0 0 1 8.3-8.3 8.306 8.306 0 0 1 8.3 8.3v6.614c.069 3.232.738 7.081 3.531 7.081a.9.9 0 0 1 .9.9.9.9 0 0 1 -.902.895zm-20.123-1.792h16.554c-.975-1.312-1.681-3.5-1.755-7.053v-6.642a6.512 6.512 0 0 0 -6.5-6.5 6.513 6.513 0 0 0 -6.505 6.5v6.623c-.048 2.126-.385 5.157-1.793 7.072z" transform="translate(-2170.408 2503.751)"/><path d="m2204.341-2417.073a3.7 3.7 0 0 1 -3.691-3.691.9.9 0 0 1 .9-.9.9.9 0 0 1 .9.9 1.9 1.9 0 0 0 1.9 1.9 1.9 1.9 0 0 0 1.9-1.9.9.9 0 0 1 .9-.9.9.9 0 0 1 .9.9 3.7 3.7 0 0 1 -3.709 3.691z" transform="translate(-2191.616 2447.425)"/><path d="m2210.9-2504.35a.9.9 0 0 1 -.9-.9v-1.774a.9.9 0 0 1 .9-.9.9.9 0 0 1 .9.9v1.774a.9.9 0 0 1 -.9.9z" transform="translate(-2198.178 2507.916)"/></g></svg>