<svg height="27.103" viewBox="0 0 30.912 27.103" width="30.912" xmlns="http://www.w3.org/2000/svg"><g fill="#fff"><path d="m2023.464-2499.7h-22.664c-.114 0-.23 0-.344-.005-.1-.005-.2-.016-.3-.029s-.179-.025-.267-.043l-.04-.007-.03-.007a4.253 4.253 0 0 1 -.353-.092l-.1-.034-.088-.03-.042-.017-.148-.058h-.01a4.1 4.1 0 0 1 -.519-.266l-.034-.022a4.419 4.419 0 0 1 -.132-.085l-.068-.047-.021-.016-.075-.054-.044-.034a2.871 2.871 0 0 1 -.107-.085l-.039-.033a4.12 4.12 0 0 1 -.368-.355l-.029-.032-.031-.036a4.18 4.18 0 0 1 -.212-.259l-.066-.092.629-.473-.644.451-.035-.05-.044-.068-.062-.1a3.787 3.787 0 0 1 -.062-.108l-.036-.063-.041-.079-.015-.03-.115-.245c-.026-.062-.048-.117-.068-.173l-.04-.113-.049-.154.75-.235-.761.2-.028-.1a1.158 1.158 0 0 1 -.02-.086l-.007-.029a2.626 2.626 0 0 1 -.049-.249l-.007-.038a8.223 8.223 0 0 1 -.015-.113l.777-.124-.781.091-.007-.056c0-.035-.006-.066-.008-.1l-.009-.111v-.131-.085a4.113 4.113 0 0 1 4.109-4.109h22.779a.786.786 0 0 1 .786.786v6.646a.786.786 0 0 1 -.796.786zm-22.535-1.573h21.749v-5.073h-21.993a2.539 2.539 0 0 0 -2.537 2.537v.129l.01.135v.036l.011.085v.027c.005.034.011.067.018.1l.042.172.008.026.053.164.045.115.047.1.027.054.031.061.022.038.1.168.025.036.049.068c.04.053.082.1.125.154l.023.026.032.036c.039.041.092.094.146.144l.092.08.06.047.031.024.1.075c.03.021.06.039.089.057l.025.016a2.566 2.566 0 0 0 .31.158h.009c.024.011.05.02.076.03l.04.016.044.014.066.023c.074.023.148.042.222.057l.024.006.033.007a3.786 3.786 0 0 0 .334.04 2.347 2.347 0 0 0 .271 0 .823.823 0 0 1 .142.014z" transform="translate(-1996.576 2507.916)"/><path d="m2032.371-2490.343h-20.65a.786.786 0 0 1 -.786-.786v-3.323a.786.786 0 0 1 .786-.786h20.65a.786.786 0 0 1 .786.786v3.323a.786.786 0 0 1 -.786.786zm-19.864-1.573h19.078v-1.75h-19.078z" transform="translate(-2007.172 2498.561)"/><path d="m2091.087-2451.747h-3.487a3.777 3.777 0 0 1 -3.773-3.773 3.777 3.777 0 0 1 3.773-3.773h3.487a.786.786 0 0 1 .786.786v5.973a.786.786 0 0 1 -.786.787zm-3.487-5.973a2.2 2.2 0 0 0 -2.2 2.2 2.2 2.2 0 0 0 2.2 2.2h2.7v-4.4z" transform="translate(-2060.961 2472.035)"/><ellipse cx="26.557" cy="16.398" rx=".971" ry=".971"/><path d="m2025.538-2471.458h-24.853a4.113 4.113 0 0 1 -4.109-4.109v-18.885a.786.786 0 0 1 .786-.786.786.786 0 0 1 .786.786 2.54 2.54 0 0 0 2.537 2.536h.126a.825.825 0 0 1 .118 0h24.609a.786.786 0 0 1 .786.786v6.1a.786.786 0 0 1 -.786.786h-2.324a2.2 2.2 0 0 0 -2.2 2.2 2.2 2.2 0 0 0 2.2 2.2h2.324a.786.786 0 0 1 .786.786v6.814a.786.786 0 0 1 -.786.786zm-27.39-19.764v15.655a2.539 2.539 0 0 0 2.537 2.537h24.067v-5.242h-1.538a3.777 3.777 0 0 1 -3.772-3.773 3.777 3.777 0 0 1 3.772-3.773h1.538v-4.525h-23.951a4.1 4.1 0 0 1 -2.653-.879z" transform="translate(-1996.576 2498.561)"/></g></svg>