<svg height="43.997" viewBox="0 0 44.262 43.997" width="44.262" xmlns="http://www.w3.org/2000/svg" xmlns:xlink="http://www.w3.org/1999/xlink"><clipPath id="a"><path d="m0-53.108h44.261v44h-44.261z" transform="translate(0 53.108)"/></clipPath><g clip-path="url(#a)"><path d="m-6.059-6.137c5.059-4.983 9.966-9.833 14.84-14.629 0 .027.027.213.027.4 0 3.092 0 6.183.027 9.247.027 5.436.08 10.872.109 16.308a2.784 2.784 0 0 1 -3.066 3.037h-37.892c-2.291 0-3.49-1.492-3.091-3.757a4.529 4.529 0 0 1 1.332-2.505q12.673-12.75 25.315-25.555l4.609-4.69c.162-.162.293-.32.534-.587h-25.024v7.541h7.889a.478.478 0 0 1 .054.187c-4.93 4.876-9.86 9.726-14.9 14.656-.027-.32-.027-.533-.027-.746v-25.37c0-2.079 1.066-3.171 3.145-3.171h37.844a3.064 3.064 0 0 1 3.144 2.771c.027.266.108.533.108.8a2.024 2.024 0 0 1 -.533 1.623q-8.712 8.794-17.4 17.64c-4.557 4.612-9.085 9.249-13.645 13.859-.133.133-.239.293-.453.56.373.027.613.08.827.08h23.37c.906 0 .933 0 .906-.933-.027-2.051-.109-4.13-.109-6.182 0-.506-.266-.559-.666-.559h-6.315a9.5 9.5 0 0 0 -.959-.024" fill="#ffe100" transform="translate(35.319 35.771)"/></g></svg>