<svg xmlns="http://www.w3.org/2000/svg" xmlns:xlink="http://www.w3.org/1999/xlink" width="148.247" height="273.736" viewBox="0 0 148.247 273.736">
    <defs>
        <style>
            .cls-1{fill:#895600}.cls-2{fill:#462b00}.cls-3{fill:#fdd832}.cls-4{fill:#fff}.cls-5{fill:#facb32}.cls-6{fill:#d6a600}.cls-7{fill:url(#linear-gradient)}.cls-8{fill:url(#linear-gradient-2)}.cls-9{fill:#35140d}.cls-10{fill:url(#linear-gradient-3)}.cls-11{fill:url(#linear-gradient-4)}.cls-12{fill:url(#linear-gradient-5)}.cls-13{fill:url(#linear-gradient-6)}.cls-14{fill:url(#linear-gradient-7)}.cls-15{fill:url(#linear-gradient-8)}.cls-16{fill:url(#linear-gradient-9)}.cls-17{fill:url(#linear-gradient-10)}.cls-18{fill:url(#linear-gradient-11)}.cls-19{fill:url(#linear-gradient-12)}.cls-20{fill:url(#linear-gradient-13)}.cls-21{fill:url(#linear-gradient-14)}.cls-22{fill:url(#linear-gradient-16)}.cls-23{fill:url(#linear-gradient-17)}.cls-24{fill:url(#linear-gradient-18)}.cls-25{fill:url(#linear-gradient-19)}.cls-26{fill:url(#linear-gradient-20)}.cls-27{fill:#4c2718}
        </style>
        <linearGradient id="linear-gradient" x1="2972.579" x2="5952.077" y1=".5" y2=".5" gradientUnits="objectBoundingBox">
            <stop offset="0" stop-color="#aeb0b3"/>
            <stop offset="1" stop-color="#313133"/>
        </linearGradient>
        <linearGradient id="linear-gradient-2" x1="-2978.492" x2="1.005" y1=".5" y2=".5" xlink:href="#linear-gradient"/>
        <linearGradient id="linear-gradient-3" x1="-.02" x2="1.023" y1=".557" y2=".557" gradientUnits="objectBoundingBox">
            <stop offset="0" stop-color="#c49539"/>
            <stop offset="1" stop-color="#612c12"/>
        </linearGradient>
        <linearGradient id="linear-gradient-4" x1="-.001" x2="1" y1=".496" y2=".496" xlink:href="#linear-gradient-3"/>
        <linearGradient id="linear-gradient-5" x2="1" y1=".5" y2=".5" xlink:href="#linear-gradient-3"/>
        <linearGradient id="linear-gradient-6" x2=".994" y1=".504" y2=".504" xlink:href="#linear-gradient-3"/>
        <linearGradient id="linear-gradient-7" x2="1.001" y1=".496" y2=".496" xlink:href="#linear-gradient-3"/>
        <linearGradient id="linear-gradient-8" x1=".001" x2="1.001" y1=".499" y2=".499" xlink:href="#linear-gradient-3"/>
        <linearGradient id="linear-gradient-9" x1="-.001" x2="1" y1=".499" y2=".499" xlink:href="#linear-gradient-3"/>
        <linearGradient id="linear-gradient-10" x2="1.001" y1=".501" y2=".501" xlink:href="#linear-gradient-3"/>
        <linearGradient id="linear-gradient-11" x1=".001" x2="1" y1=".5" y2=".5" xlink:href="#linear-gradient-3"/>
        <linearGradient id="linear-gradient-12" x1=".004" x2="1.001" y1=".504" y2=".504" xlink:href="#linear-gradient-3"/>
        <linearGradient id="linear-gradient-13" x1="-.021" x2="1.022" y1=".557" y2=".557" xlink:href="#linear-gradient-3"/>
        <linearGradient id="linear-gradient-14" x1=".001" x2="1" y1=".5" y2=".5" xlink:href="#linear-gradient-3"/>
        <linearGradient id="linear-gradient-16" x2="1" y1=".5" y2=".5" xlink:href="#linear-gradient-3"/>
        <linearGradient id="linear-gradient-17" x2=".999" y1=".5" y2=".5" xlink:href="#linear-gradient-3"/>
        <linearGradient id="linear-gradient-18" x1="-.001" x2="1" y1=".501" y2=".501" xlink:href="#linear-gradient-3"/>
        <linearGradient id="linear-gradient-19" x1=".001" x2=".999" y1=".5" y2=".5" xlink:href="#linear-gradient-3"/>
        <linearGradient id="linear-gradient-20" x1="-.001" x2="1" y1=".5" y2=".5" xlink:href="#linear-gradient-3"/>
    </defs>
    <g id="Group_23962" data-name="Group 23962" transform="translate(4494.692 -4731.273)">
        <circle id="Ellipse_1091" cx="52.801" cy="52.801" r="52.801" class="cls-1" data-name="Ellipse 1091" transform="translate(-4479.972 4731.274)"/>
        <path id="Path_53151" d="M-4318.921 5212.275a52.8 52.8 0 0 1-52.781-51.423c-.013.457-.019.919-.019 1.379a52.8 52.8 0 0 0 52.8 52.8 52.8 52.8 0 0 0 52.8-52.8c0-.46-.006-.922-.018-1.379a52.8 52.8 0 0 1-52.782 51.423z" class="cls-2" data-name="Path 53151" transform="translate(-108.252 -378.156)"/>
        <path id="Path_53152" d="M-4248.21 6690.127s-21.474 2.8-25.749 4.934a19.438 19.438 0 0 0-6.91 6.432s0-.806-3.29 0-7.237 3.574-9.212 4.989-2.8 6.839-2.8 6.839v5.759s12.629 8.72 36.335 10.035 41.149-3.784 49.21-5.758 8.555-3.126 8.719-7.4.822-5.757-1.151-8.72a20.628 20.628 0 0 0-10.693-7.884l-5.1-1.658s-1.027-3.926-4.79-4.349-16.704-3.746-24.569-3.219z" class="cls-1" data-name="Path 53152" transform="translate(-174.76 -1724.32)"/>
        <g id="Group_23657" data-name="Group 23657" transform="translate(-4470.928 4965.751)">
            <path id="Path_53153" d="M-4210.625 6723.356c8.06-1.974 8.554-3.126 8.719-7.4.01-.28.025-.547.036-.8-.312 1.167-1.446 3.021-5.218 4.752-6.116 2.81-19.5 3.608-20.989.729s-6.488-3.7-3.988-9.489.29-7.767 5.2-8.428 7.947-4.053 5.031-8.065a7.341 7.341 0 0 0-1.163-1.194 6.222 6.222 0 0 0-.643-.111c-3.764-.421-16.7-3.747-24.57-3.217 0 0-10.852 1.412-18.663 3 .271 4.578 1.579 12.74 7.458 13.358a39.82 39.82 0 0 0 10.5 1.746c4.81-.059 5.807-4.852 11.506-3.363s-5.537 7.251 3.057 11.808 3.387 7.342-6.321 8.921-21.289 4.562-55.492-6.514c0 0 12.629 8.72 36.335 10.035s41.145-3.794 49.205-5.768z" class="cls-2" data-name="Path 53153" transform="translate(4296.169 -6690.07)"/>
        </g>
        <path id="Path_53155" d="M-4265.524 5234.631s-1.587 5.907-2.63 9.485-5.517 9.542-4.994 11.925-.447 11.629-3.577 16.549a17.01 17.01 0 0 0-2.906 9.168 68.545 68.545 0 0 0-6.337 5.292c-2.759 2.683-3.205 5.516-4.473 6.931s-3.131.6-6.634 2.535-5.517 6.932-5.517 6.932l-4.473-1.417s-7.155 5.516-12.819 4.919-10.152-6.4-12.854-9.094a15.094 15.094 0 0 0-7.6-4.019c-.94 0-1.13-.5-2.826-2.639a30.528 30.528 0 0 0-5.212-4.584 11.7 11.7 0 0 1-1.569-2.826 37.515 37.515 0 0 0-6.721-10.675c-4.081-4.585-4.333-7.976-5.086-10.737a6.5 6.5 0 0 1 .313-4.649s-8.1-15.135-8.289-16.955a25.755 25.755 0 0 0-1.63-5.212s-.819 5.588 0 7.787a12.771 12.771 0 0 1 .939 5.714c0 2.7 1.444 4.333 1.758 9.168a104.5 104.5 0 0 0 1.558 11.118s4.674 14.525 9.182 19.367 7.012 8.345 8.68 13.687 5.011 6.51 6.51 8.18a11.38 11.38 0 0 1 2.338 7.344c0 2.839-1.5 6.846 1.67 11.019s.668 6.51 7.179 16.358c0 0 1.5 7.514 1.167 9.684-.026.18-.06.365-.095.548a25.346 25.346 0 0 1-.66 2.561c-.719 2.869-1.865 7.658-2.595 11.787a4.715 4.715 0 0 1-.32 1.964c-.977 6.57-3.463 21.79-3.463 21.79-.282 2.528-.5 4.925-.545 6.756-.167 6.344-1.835 8.848-1 11.684s2.334 5.01 3.5 7.848 2.672 5.341 6.011 5.341 6.177.167 7.346-5.844 6.342-28.711 7.845-30.547 4.174-1 4.174-1a5.866 5.866 0 0 0 4.006 7.347 21 21 0 0 1 9.016 6.511 7.463 7.463 0 0 1 0 3.6c-.526 1.585-.822 4.909.233 6.87s2.565 4.834 5.358 4.911l.6-3.626 2.568 3.247s2.04-3.324 1.056-9.135-3.168-4.683-2.944-8.835 2.87-9.442 2.04-12.613a6.681 6.681 0 0 0-3.55-4.3s2.568-8.835 1.286-13.142a51.544 51.544 0 0 0-3.477-8.38s-3.98-6.362-3.686-17.809c0 0 3.521-8.366 6.456-14.237a22.26 22.26 0 0 0 2.643-11.744 13.091 13.091 0 0 1 .886-4.351s5.334-5.333 7.181-10.361 2.974-9.539 5.847-12.72 3.487-4.922 5.025-9.333 1.847-14.156 1.847-14.156l1.027-9.334a41.648 41.648 0 0 1 0-8.409c.512-3.489.923-4.924 1.23-6.875s.519-5.034.007-6.369z" class="cls-3" data-name="Path 53155" transform="translate(-108.252 -443.103)"/>
        <g id="Group_23658" data-name="Group 23658" transform="translate(-4475.475 4817.738)">
            <path id="Path_53156" d="M-4042.449 6369.027s-3.743 13.368-3.209 23.793.624 16.222 2.586 16.044 3.5-4.635 3.5-4.635 1.889 12.478-2.28 14.169-5.877-1.068-6.181-8.554 1.033-31.193 5.584-40.817z" class="cls-4" data-name="Path 53156" transform="translate(4082.315 -6259.445)"/>
            <path id="Path_53157" d="M-3967.477 6477.108s1.334 13.192 2.352 11.319.749-18.892.749-18.892-.534 12.029-1.158 11.141-1.943-3.568-1.943-3.568z" class="cls-4" data-name="Path 53157" transform="translate(4011.37 -6347.922)"/>
            <path id="Path_53158" d="M-3819.049 6440.5s-3.791.09-2.9 3.477-.625 4.545 1.871 5.258 4.456 3.955 4.991.463 1.197-8.962-3.962-9.198z" class="cls-4" data-name="Path 53158" transform="translate(3883.381 -6322.362)"/>
            <path id="Path_53159" d="M-3714.578 6538.031s-3.387.392-2.495 4.7 1.871 5.17 1.871 5.17 2.227-7.553.624-9.87z" class="cls-4" data-name="Path 53159" transform="translate(3791.072 -6408.218)"/>
            <path id="Path_53160" d="M-3952.548 6256.468s-1.624-4.589-3.01-4.08-1.419 2.04 0 4.08 3.01 0 3.01 0z" class="cls-4" data-name="Path 53160" transform="translate(4001.803 -6156.735)"/>
            <path id="Path_53161" d="M-3955.558 6105.906s-1.53.511-2.487-2.611 0-4.526 0-4.526a5.1 5.1 0 0 1 .32-5.163c1.721-2.931 2.379-4.525 2.943-4.016s.71 3.378 0 4.972a28.883 28.883 0 0 1-2.512 4.017s2.394.126 2.512 1.338-2.561 4.016-.776 5.989z" class="cls-4" data-name="Path 53161" transform="translate(4003.541 -6013.375)"/>
            <path id="Path_53162" d="M-4078.98 5824.587s-1.339 3.952 3.123 9.114 11.7 10.709 12.351 11.792 4.028 3.633 1.926 3.251-6.947-3.888-6.947-3.888-1.785.826-.318 4.43 1.347 3.09 1.347 3.09-3.641-.955-3.26 1.915.256 4.268 2.551 3.7a36.966 36.966 0 0 0 6.119-2.613s-3.187 4.27-5.8 4.651-3.888.51-5.481-1.657-2.04-3.08-2.167-4.761-.509-6.9.382-6.2a5.709 5.709 0 0 1 2.549 3.059c.511 1.721 1.117.957 1.117.957a60.765 60.765 0 0 0 0-6.565c-.224-1.85-1.881-5.353-3.792-8.22s-4.849-6.316-3.7-12.055z" class="cls-4" data-name="Path 53162" transform="translate(4109.754 -5780.178)"/>
            <path id="Path_53163" d="M-4227.723 5675.669s-.752 2.262 2.665 4.927 7.3 7.763 8.75 8.168 1.215.753-.87-3.361-6.605-9.734-10.545-9.734z" class="cls-4" data-name="Path 53163" transform="translate(4240.526 -5649.084)"/>
            <path id="Path_53164" d="M-4181.712 5778.754s1.623 5.791 3.823 7.183 5.968 5.389 5.91 6.837-.637 6.141 0 8.168 1.043 3.478 1.678 2.839 1.1-1.332.524-3.244-1.391-1.158-1.391-3.882.463-3.939-.812-6.082-3.824-3.767-5.156-4.867a17.272 17.272 0 0 1-4.576-6.952z" class="cls-4" data-name="Path 53164" transform="translate(4199.96 -5739.831)"/>
            <path id="Path_53165" d="M-4333.731 5454.307s1.034 6.844 2.933 10.7 5.349 9.2 5.349 11.042v2.761a36.706 36.706 0 0 1-4.143-5.867c-1.888-3.365-5.864-20.707-4.139-18.636z" class="cls-4" data-name="Path 53165" transform="translate(4334.155 -5454.07)"/>
            <path id="Path_53166" d="M-3669.7 5668.326a10.893 10.893 0 0 1 3.837-5.8c3.239-2.642 5.2-5.03 4.6-3.325s-2.643 7.332-4.773 8.183-3.75 2.902-3.664.942z" class="cls-4" data-name="Path 53166" transform="translate(3749.243 -5634.085)"/>
            <path id="Path_53167" d="M-3557.065 5453.59s-.131 12.517-1.376 16.382-2.752 6.356-4.129 6.75-2.1.563 0-3.979 4.481-2.783 5.505-19.153z" class="cls-4" data-name="Path 53167" transform="translate(3656.09 -5453.59)"/>
            <path id="Path_53168" d="M-3683.187 5719.609a17.738 17.738 0 0 1-4.6 7.077c-3.2 2.751-6.526 4.391-6.763 6.42s-2.138 4.26 2.842.525a21.315 21.315 0 0 0 8.521-14.022z" class="cls-4" data-name="Path 53168" transform="translate(3771.598 -5687.766)"/>
            <path id="Path_53169" d="M-3863.57 5781.634s-2.1 9.135-5.223 12.959-10.39 10.134-12.3 12.938-3.252 4.08-1.4 3.443 5.25-3.722 7.054-4.506 3.462-3.908 3.781-.849-2.614 6.5-2.614 6.5 4.271-3.255 5.1-2.235.181 3.828-1.63 4.465-4.636 1.848-4.636 1.848 7.414-2.231 7.6-.891-1.339 3.623-1.339 3.623 6.119-3.9 2.678-12.463-1.594-9.964.128-13.279a31.244 31.244 0 0 0 2.801-11.553z" class="cls-4" data-name="Path 53169" transform="translate(3937.34 -5742.366)"/>
            <path id="Path_53170" d="M-3704.894 5892.02a3.68 3.68 0 0 0-1.937 3.7 75.481 75.481 0 0 1-.021 9.241s2.939-4.654 1.958-12.941z" class="cls-4" data-name="Path 53170" transform="translate(3781.942 -5839.539)"/>
            <path id="Path_53171" d="M-3880.167 6081.349a4.172 4.172 0 0 0 1.012 3.83 11.217 11.217 0 0 0 4.1 2.981s-3.7 1.542-5.229.266-1.265-6.065.117-7.077z" class="cls-4" data-name="Path 53171" transform="translate(3935.529 -6006.204)"/>
            <path id="Path_53172" d="M-3866.616 6153.709s-1.863-1.065-1.489 2.552.053 5.161 1.489 5.107 1.755-.374 1.755-.374-1.96 3.617-3.294 2.183-1.281-5.214-1.281-6.544.692-3.833 2.82-2.924z" class="cls-4" data-name="Path 53172" transform="translate(3925.065 -6069.731)"/>
            <path id="Path_53173" d="M-3872.317 6252.2s-1.171-.414-2.607 2.512-.534 2.767.479 2.714a13.178 13.178 0 0 0 3.406-1.383s-1.809.852-1.916-.8a6.325 6.325 0 0 1 .638-3.043z" class="cls-4" data-name="Path 53173" transform="translate(3930.553 -6156.586)"/>
        </g>
        <path id="Path_53174" d="M-4278.082 5361.261a40.807 40.807 0 0 0 1.5 12.411 6 6 0 0 1-1.933-3.248c-.841-3.559-.063-8.409.195-10.026s1.23-3.105-.065-2.522a4.221 4.221 0 0 1-2.717.128c1.035 0 4.592-2.846 6.275-5.432s-.776-10.351-.776-10.351a5.989 5.989 0 0 1 1.875 2.977c.583 2 1.008 1.473 2.265 0 1.233-1.446 2.307-6.3 2.49-10.2 0 .094-.006.189-.006.284a22.262 22.262 0 0 1-2.641 11.74c-2.94 5.878-6.462 14.239-6.462 14.239zm9.117-26.484zm0 0c.011-.211.032-.42.055-.628a4.709 4.709 0 0 0-.055.627zm-50.17 12.917c3.172 4.174.668 6.512 7.177 16.361 0 0 .6 3.012.961 5.77 0-.042-.136-3.884 0-6.977.137-3.108.76-2.763-.485-4.215s-3.248-2.764-3.248-6.839a67.632 67.632 0 0 1 .553-8.085s3.387 1.173 4.282 6.289c0 0 .14-5.529-1.1-8.846s-2.971-4.285-4.146-6.84-2.418-3.732-2.348-6.911 0-5.6 0-5.6-1.309 4.835-.48 7.946 4.147 12.574.07 16.617c0 0-2.471-2.03-3.068-7.493-.289 2.552-.589 5.638 1.831 8.822zm26.95 1.635a5.325 5.325 0 0 0-.622.238 47.973 47.973 0 0 0 7.066-2.646zm-9.008 4.043c-1.458.646-2.64 1.237-2.64 1.237a8.764 8.764 0 0 0 2.64-1.238zm10.076-14.381c.649-.532 1.106-.922 1.106-.922s-.457.37-1.106.921zm-4.946 2.045a8.857 8.857 0 0 1 .615.992c.166.328 2.791-1.765 4.331-3.037a42.3 42.3 0 0 0-3.67 3.427c-1.436 1.631-.813 2.795-.813 2.795l3.958-2.795a13.584 13.584 0 0 1-2.484 2.641c-1.863 1.629-1.166 2.873-.661 4.348.144.418.928.4 1.98.161-.635.289-1.39.8-.31 1.314a39.086 39.086 0 0 1 4.327 2.952c.594.444 1.165.876 1.646 1.243 3.265 1.6 6.6-1.4 7.184-1.963a41.371 41.371 0 0 0-4.011 4.522c-1.25 1.823-.283 3.529.4 4.727.6 1.046 2.507-.439 2.971-.824-3.46 2.961-2.282 9.333-1.6 12.134a2.731 2.731 0 0 0 2.706 2.064 4.855 4.855 0 0 1 1.677-.112 5.343 5.343 0 0 1 2.686 2.011 14.451 14.451 0 0 0 .739 1.437 51.347 51.347 0 0 1 3.476 8.379c1.284 4.307-1.285 13.142-1.285 13.142a6.68 6.68 0 0 1 3.549 4.3 7.121 7.121 0 0 1 .068 2.685c-.245-.343-.845-.682-2.14-.905-3.486-.6-3.586-1.095-3.586-1.095s1.094-7.171-4.083-10.261-9.931.3-10.4 3.189-2.156 6.87 1.929 8.666c0 0 1.555 4.082 5.756 3.884l4.2-.2a6.9 6.9 0 0 0 .6 6.074c1.892 3.388 4.283 4.184 4.283 4.184s-1.994 1-1.2 2.89 2.791 7.77 2.791 7.77 1.694 1.991 1.993-.7-.539-8.641-.539-8.641a12.282 12.282 0 0 1 1.223 3.9c.982 5.814-1.054 9.137-1.054 9.137l-2.568-3.248-.6 3.627c-2.795-.078-4.306-2.946-5.359-4.91s-.759-5.285-.232-6.871a7.465 7.465 0 0 0 0-3.6 21 21 0 0 0-9.016-6.511 5.866 5.866 0 0 1-4.006-7.346s-2.67-.834-4.172 1-6.679 24.539-7.846 30.55-4.007 5.842-7.345 5.842c-2.987 0-4.5-2-5.626-4.457l.729-1.806s1 3.785 2.49 4.084 3.581 2.888 6.024 0 3.338-5.879 3.338-13.647a56.571 56.571 0 0 0-.746-8.917c.862 3.884 1.959 8.338 2.352 7.822.687-.9 3.674-9.862 3.275-16.833s-.27-10.857-2.527-15.141c-.255-.491-.506-1-.746-1.529 2.133 5.548-1.729 12.179-3.1 10.234s-1.371 4.692-1.371 4.692c-2.012-10.265 1.371-23.658 1.371-23.658s3.461 8.467 6.412 8.467 6-1.5 8.458-5.278a41.462 41.462 0 0 0 3.881-7.809 3.961 3.961 0 0 0-.276.46s.227-3.595.513-6.269-1.186-2.051-1.186-2.051 1.983-3.927 2.1-6.207-2.472-2.39-2.472-2.39a2 2 0 0 0 1.326-.8c.562-.741.575-3.3-.277-4.781-.636-1.1-1.861-2.985-2.445-3.876a22.862 22.862 0 0 0-4.732-2.592c-1.708-.387-1.553 1.435-1.553 1.435a9.933 9.933 0 0 1-1.085-1.282c-.418-.558-3.193.521-5.359 1.48 1.445-1 2.278-2.244 1.166-2.8a36.416 36.416 0 0 1-4.816-3.456s2.175 1.127 4.116 2.215 4.661 1.164 4.581-.157-3.415-4.5-3.415-4.5l3.029 2.444s0-1.28-.079-2.6c-.042-.694-1.242-1.753-2.373-2.6a8.412 8.412 0 0 0 2.294 1.2c.85.091.621-2.066.621-2.066zm10.324 39.2a16.457 16.457 0 0 1 1.406-1.516 7.147 7.147 0 0 0-1.406 1.517zm-13.245-38.325c-1.018-.766-1.976-1.359-1.976-1.359s.951.693 1.976 1.36zm-5.859 18.483c-1.418.912-4.53.211-4.53.211 4.62 1.331 3.99 2.1 3.99 4.482s-3.074-1.323-3.081-1.332l1.681 2.03c1.678 2.029 1.75 5.881.7 5.95s-2.38 3.641-2.38 4.48 4.62 4.482 4.62 4.482v-5.113a3.329 3.329 0 0 1 1.331-2.589 30.8 30.8 0 0 1-1.4-5.811c-.146-1.656.149-2.059.341-2.15a6.608 6.608 0 0 1-.341-1.489c-.351-2.171 2.52-7.071 2.52-7.071s-2.031 3.013-3.451 3.926zm1.42 4.623a.222.222 0 0 0-.149.019c.105.206.149-.017.149-.017zm22.823-3.48a1.644 1.644 0 0 0 0 .001zm.729-8.514s-.032.034-.088.089a.94.94 0 0 0 .088-.088zm31.029-79.087a3.507 3.507 0 0 0-1.6 2.822c-.245 2.148-2.761 12.885-4.6 16.568s-2.024 6.565-2.822 7.977-4.418 3.131-8.037 6.32c-2.706 2.384-4.211 6.345-5.006 9.654 0 0 6.05-2.681 8.009-3.958a8.225 8.225 0 0 0 2.383-3.57c-.205.572-.454 1.269-.762 2.119-1.449 4.008-4.092 4.008-6.905 5.409a6.962 6.962 0 0 0-3.509 4.115 32.4 32.4 0 0 1-1.479 4.384c-.023.06-.048.117-.07.176-.231.615-.833 2.649 1.23 2.649 2.429 0 7.932-4.6 7.932-4.6a19.89 19.89 0 0 1-5.24 5.581c-2.881 1.77-6.661 3.352-7.779 5.408-1.64 4.522.458 6.567.458 6.567-1.352-.614-1.719-3.988-1.536-5.463s3.778-7.464 4.272-11.783a23.5 23.5 0 0 0-.283-7.5c-1.062 5.663-2.691 8.082-5.652 12.719s-12.792 8.842-14.207 9.659a5.755 5.755 0 0 0-2.018 1.846s-.215-.946-5.668-1.975-9.6-7.063-12.466-9.933-1.633-7.31-2.219-10.246-2.58-2.48-2.58-2.48c1.4 1.566 1.016 4.372.689 5.4s-2.414 1.252-6-1.488a38.341 38.341 0 0 1-6.459-6.59s1.893 1.892 4.568 4.438 4.306 3.325 5.741 3.641 1.464-.573 1.464-.573-4.533-5.808-5.9-9.136c-.891-2.169-3.555-4.585-5.775-6.223a16.143 16.143 0 0 0-5.179-2.6l1.587.168c-1.295-1.55-2.431-5.291-5.507-9.03-3.654-4.436-4.959-14.746-5.286-15.2s-1.044-1.044-.327-1.894a4.726 4.726 0 0 1 2.217-1.175s-2.934-5.544-4.891-9.067a11.5 11.5 0 0 1-1.409-5.687c1.974 4.542 7.62 15.093 7.62 15.093a6.5 6.5 0 0 0-.313 4.646c.755 2.764 1.006 6.155 5.087 10.74a37.579 37.579 0 0 1 6.72 10.674 11.64 11.64 0 0 0 1.569 2.827 30.4 30.4 0 0 1 5.213 4.585c1.694 2.135 1.884 2.636 2.825 2.636a15.115 15.115 0 0 1 7.6 4.021c2.7 2.7 7.188 8.5 12.853 9.095s12.82-4.92 12.82-4.92l4.474 1.416s2.012-4.994 5.515-6.932 5.367-1.117 6.634-2.533 1.716-4.25 4.474-6.933a68.767 68.767 0 0 1 6.334-5.294 17.037 17.037 0 0 1 2.908-9.167c3.13-4.919 4.1-14.162 3.577-16.549s3.949-8.347 4.993-11.925c.6-2.062 1.385-4.9 1.938-6.934.573 7.413-1.547 8.764-2.456 10.641-.983 2.024-2.824 5.646-2.64 6.87s2.876.496 2.876.496zm-71.85 43.683s-.575-4.906-3.18-7.241a8.5 8.5 0 0 1 1.657 3.182 52.736 52.736 0 0 0 1.523 4.06zm43.875 16.656l-.068.165c-.076.182-.143.357-.205.531l.273-.695zm-26.928 85a50.532 50.532 0 0 0-1.147-5.425s.509 2.55 1.146 5.422zm-2.742-38.572s-.261.438-.682 1.362c1.302-1.13.682-1.365.682-1.365zm-9.167 54.432a9.986 9.986 0 0 0 .129 1.724c.144.204.165-.654-.129-1.727zm.129-23.377c.422-5.578 3.959-15.041 5.636-21.615a48.62 48.62 0 0 1 2.719-8.077 14.69 14.69 0 0 1-1.507 1.109c-3.188 2.095-3.33-4.448-3.33-4.448-.687 2.832-1.545 6.585-2.134 9.908a4.677 4.677 0 0 1-.321 1.966c-.976 6.568-3.461 21.79-3.461 21.79-.281 2.526-.5 4.924-.544 6.755a49.145 49.145 0 0 1-1.066 8.224c.419 2.019 1.09 4.191 2.092 4.907a5.175 5.175 0 0 1 1.788 2.858c-.181-4.896-.222-18.769.128-23.38zm55.01-102a22.616 22.616 0 0 0 .856-2.482s-.106.364-.856 2.475z" class="cls-1" data-name="Path 53174" transform="translate(-127.837 -461.856)"/>
        <path id="Path_53175" d="M-3965.49 6131.6s2.064-5.378 0-10.444-4.767-6.818-6.184-10.182a40.833 40.833 0 0 1-2.049-6.164s3.241 9.507 7.753 8.361 8.77-6.623 9.778-10.051 1.97-7.438 1.926-9.5-1.654-1.291-1.654-1.291a12.514 12.514 0 0 0 1.847-4.739c.181-2.2.889-3.619-2.224-3.857a2.118 2.118 0 0 0 1.712-2.248c-.14-1.89-.122-4.068-3.434-7.7 0 0 1.743 2.16 3.793 1.7a20.615 20.615 0 0 0 4.16-1.532s-4.386 2.137-4.184 5.068.12 3.868 1.246 3.868a6.622 6.622 0 0 0 2.508-.723s-2.9 1.709-2.9 2.595-.43 5.712-.076 7.026.657 3.968 3.4 4.249 5 .252 6.033 2.231 3.958 7.74 4.1 10.1c0 0-3.252-7.518-5.863-8.944s-3.746-1.6-4.835-1.379-3.357 4.92-4.335 7.576-3.678 10.363-3.938 13.022-.785 7.358-.219 8.491a1.909 1.909 0 0 0 1.83 1 2.359 2.359 0 0 0-.724 3.222 8.422 8.422 0 0 0 3.74 3.18 5.43 5.43 0 0 1-5.586-3.528c-1.787-4.095-.739-4.615-1.829-4.965s-3.792 5.558-3.792 5.558z" class="cls-2" data-name="Path 53175" transform="translate(-458.606 -1181.802)"/>
        <path id="Path_53176" d="M-3799.809 6568.156a6.84 6.84 0 0 1-4.087-2.711c-1.732-2.353-2.616-5.62-1.866-6.574 0 0-2.425 3.345-5.535 2.691a19.024 19.024 0 0 1 3.988 2.451.04.04 0 0 0 .011.01 20.216 20.216 0 0 1 3.482 3.425 7.453 7.453 0 0 1 0 3.6c-.524 1.586-.821 4.907.233 6.872s2.564 4.834 5.359 4.909c0 0-3.763-3.921-3.763-8.319s2.178-6.354 2.178-6.354z" class="cls-2" data-name="Path 53176" transform="translate(-601.59 -1608.826)"/>
        <g id="Group_23659" data-name="Group 23659" transform="translate(-4443.039 4963.683)">
            <path id="Path_53177" d="M-3958.562 6677.751l-.024-.409s.008.158.024.409z" class="cls-2" data-name="Path 53177" transform="translate(3971.106 -6676.796)"/>
            <path id="Path_53178" d="M-4050.588 6685.429c.46-2.377 1.549-7.363 2.79-12.637 0 0-1.145 3.833-1.881 4.764-.607.771-.881-2.609-.958-3.81a65.138 65.138 0 0 1-.024 8.964c-.393 3.143-1.325 5.351-2.748 6.872a4.064 4.064 0 0 1-4.025 1.276 5.4 5.4 0 0 1-4.515-2.207 3.754 3.754 0 0 1-.908-3.58l-.138.343a3.841 3.841 0 0 0 .343 3.092 5.333 5.333 0 0 0 4.719 2.766c3.338-.001 6.176.166 7.345-5.843z" class="cls-2" data-name="Path 53178" transform="translate(4063.182 -6672.792)"/>
        </g>
        <path id="Path_53179" d="M-4097.442 6329.07s.543-1.2.938-.544 1.727 5.343 1.727 5.343a81.193 81.193 0 0 1-.888-11.606 56.286 56.286 0 0 1 1.183-11.719c1.134-6.36 3.108-20.563 3.8-22.044s1.084-.049 1.972-.294 3.4-3.153 3.4-3.153-3.3 2.889-3.993.563a22.555 22.555 0 0 1-.845-3.9s-1.322 5.021-3.366 17.786-2.875 15.673-2.9 19.35a61.428 61.428 0 0 1-1.028 10.218z" class="cls-2" data-name="Path 53179" transform="translate(-349.698 -1364.845)"/>
        <path id="Path_53180" d="M-4008.968 6120.088s-.077-5 .023-5.493a3.333 3.333 0 0 1 1.307-2.209 29.906 29.906 0 0 1-1.058-4.128c-.373-2.148-.633-3.1 0-3.833a4.832 4.832 0 0 1-.1-3.487c.681-1.876 2.283-5.075 2.283-5.075s-2.187 3.231-3.451 3.92-4.531.209-4.531.209 4.081.541 4.343 1.382a10.337 10.337 0 0 1 .261 3.4 1.029 1.029 0 0 1-1.511.728 9.564 9.564 0 0 0 1.335.87c.553.263.755 1.475.9 2.843s-.057 2.763-1.045 2.589a3.019 3.019 0 0 1 .465 2.089 47.127 47.127 0 0 0 .779 6.195z" class="cls-2" data-name="Path 53180" transform="translate(-422.712 -1201.242)"/>
        <g id="Group_23660" data-name="Group 23660" transform="translate(-4448.997 4868.355)">
            <path id="Path_53181" d="M-4079.128 5877.046l-.111-.6a5.37 5.37 0 0 0 .111.6z" class="cls-2" data-name="Path 53181" transform="translate(4083.276 -5876.445)"/>
            <path id="Path_53182" d="M-4103.76 5914.7s.153.769.353 1.885a10.447 10.447 0 0 1-.057-2.487c.271-1.713.571-3.88.061-3.789s-1.595.271-2.8-1.652a20.275 20.275 0 0 1-2.314-7.847c0-1.774 2.069-8.148 2.015-10.6s4.749 3.329 4.8 10.435c0 0 .025-.984-.041-2.373a19.878 19.878 0 0 0-1.333-5.791c-1.585-3.931-5.012-8.022-5.743-11.022.236 1.265.8 4.2 1.166 5.606a12.117 12.117 0 0 1 .32 5.916c-.494 2.072-1.183 5.571-1.919 5.357s-1.5-.554-2.59-2.894a11.493 11.493 0 0 1-1.081-4.451 10.151 10.151 0 0 0 1.979 7.351c3.177 4.173.673 6.509 7.184 16.356z" class="cls-2" data-name="Path 53182" transform="translate(4112.963 -5880.858)"/>
        </g>
        <path id="Path_53183" d="M-3916.456 5979.693s-.184-1.58-1.251-1.543a12.274 12.274 0 0 0-1.8.182s2.459-.13 2.2-1.479a6.366 6.366 0 0 0-1.509-2.648s1.14 1.515 1.14.559a17.232 17.232 0 0 0-.31-3.492 2.8 2.8 0 0 0-.706-1.033s.978.7 1.163.188a7.455 7.455 0 0 0 .1-1.908s.125 1.54.418 1.318 1.078-.99 1.078-.99-1.445 1.58-1.482 2.607-.183 1.874.147 1.619 1.335-1.212 1.335-1.212-1.519 1.468-1.445 2.719.479 2.685.919 2.724a5.733 5.733 0 0 0 .993-.04s-1.283.259-.99 2.429z" class="cls-2" data-name="Path 53183" transform="translate(-506.337 -1089.142)"/>
        <path id="Path_53184" d="M-3773.747 5991.169a22.111 22.111 0 0 0-1.263 3.094c-.9 2.484-.489 4.2-.489 7.005a19.458 19.458 0 0 0 1.489 6.285 41.236 41.236 0 0 1-1.306-11.732s3.522-8.365 6.458-14.236q.445-.891.795-1.716c-.094.157-2.958 4.952-3.04 2.789-.083-2.2-1.739-5.876-1.739-5.876a30.389 30.389 0 0 1 1.364 7.746c0 .076 0 .15-.007.224v.081a3.956 3.956 0 0 1-.477 2.123c-.032.06-.065.116-.1.172a14.739 14.739 0 0 1-1.543 1.938 10.345 10.345 0 0 1-2.38 2.189 5.576 5.576 0 0 1-2.352 1.306 5.932 5.932 0 0 0 3.67-1.681.64.64 0 0 1 .92.289z" class="cls-2" data-name="Path 53184" transform="translate(-630.603 -1096.416)"/>
        <path id="Path_53185" d="M-3783.219 5668.475c-.08 0-.153 0-.224-.011h-.025c-2.577-.22-.929-2.8-.363-4.23l.079-.214c.463-1.377 0-3.923 1.077-5.288s5.171-3.724 5.172-3.724c-2.249 1.1-4.61 2.144-4.611 2.144a26.932 26.932 0 0 1 8.726-15.131 67.85 67.85 0 0 0-2.557 2.136 33.209 33.209 0 0 0-4.752 6.091 10.455 10.455 0 0 1-1.364 2.357c-.713.8-1.615.886-2.891 1.154a17.809 17.809 0 0 0-4.552 1.9 10.653 10.653 0 0 0-1.533 1.384c-.646.821-1.314 1.691-1.876 2.525a18.873 18.873 0 0 0-1.3 2.507s5.486-7.253 7.137-6.561-2.957 12.3-2.96 12.307l1.45-2.37a25.134 25.134 0 0 0 3.19-8.765 23.513 23.513 0 0 1 .284 7.5c-.5 4.317-4.088 10.31-4.272 11.782s.185 4.848 1.534 5.464a3.275 3.275 0 0 1-.551-.836c-.676-1.259-1.518-3.87.375-7.313 2.706-4.925 4.127-3.064 7.137-4.813a27.752 27.752 0 0 0 5.6-4.6s-4.4 3.873-7.263 4.508a2.849 2.849 0 0 1-.667.097z" class="cls-2" data-name="Path 53185" transform="translate(-616.629 -801.726)"/>
        <path id="Path_53186" d="M-4314.378 5365.21c-1.31-7.781-.327-8.107-2.129-9.171-1.463-.864-3.249-2.055-3.651-3.259a3.013 3.013 0 0 0-.593-.084 1.3 1.3 0 0 1-.784-.216s1.915 5.114 1.588 5.607c-.132.2-.392-.043-.78-.6l.033.24s-.078-.18-.208-.5c-.569-.863-1.368-2.258-2.39-3.9-1.041-1.66-2.423-4.284-3.457-6.313-1.124-.909-2.042-1.55-2.042-1.55a4.391 4.391 0 0 1-.393-.553 6.061 6.061 0 0 1-1.82-.838c-3.194-1.963-9.979-11.236-11.062-15.18s-2.344-8.3-1.224-7.984a8.486 8.486 0 0 1 1.16.456 2.423 2.423 0 0 0-.038-.14 6.507 6.507 0 0 1 .313-4.649s-5.646-10.55-7.62-15.092a11.508 11.508 0 0 0 1.409 5.688c1.957 3.524 4.891 9.068 4.891 9.068a4.692 4.692 0 0 0-2.217 1.175c-.717.848 0 1.435.327 1.892s1.631 10.768 5.286 15.2c3.077 3.739 4.212 7.479 5.507 9.029l-1.587-.168a16.162 16.162 0 0 1 5.179 2.6c2.22 1.639 4.884 4.055 5.775 6.224 1.37 3.327 5.9 9.135 5.9 9.135s-.029.886-1.464.574-3.069-1.1-5.741-3.642-4.568-4.435-4.568-4.435a38.38 38.38 0 0 0 6.459 6.588c3.59 2.74 5.676 2.519 6 1.488s.709-3.835-.689-5.4c0 0 1.993-.455 2.58 2.48s-.65 7.374 2.219 10.246c2.426 2.426 5.763 7.11 10.028 9.125s-8.886-5.362-10.197-13.141z" class="cls-2" data-name="Path 53186" transform="translate(-127.837 -501.961)"/>
        <path id="Path_53187" d="M-4029.753 5785.188s-2.386-2.479-1.529-4.367 1.347-.409 3.248-1.484 3.659.4 2.377 2.683c0 0 6.593-5.049 8.423-8.023a8.506 8.506 0 0 0 1.328-5.6l-4.471-1.417s-7.157 5.516-12.821 4.92-10.154-6.4-12.854-9.1a24.071 24.071 0 0 1 3.777 8.084c1.389 5.101 1.121 8.49 12.522 14.304z" class="cls-2" data-name="Path 53187" transform="translate(-394.935 -908.052)"/>
        <g id="Group_23661" data-name="Group 23661" transform="translate(-4463.642 4971.504)">
            <path id="Path_53188" d="M-4176.181 6782.513l.937.357s-.001-.348-.937-.357z" class="cls-3" data-name="Path 53188" transform="translate(4183.257 -6777.201)"/>
            <path id="Path_53189" d="M-3699.4 6755.418l-5.1-1.658s9.06 4.525 6.048 8.787-15.311 3.386-13.177 7.525 15.755 3.052 19.955-.5 1.9-6.928-.868-10.429a21.287 21.287 0 0 0-6.858-3.725z" class="cls-3" data-name="Path 53189" transform="translate(3774.529 -6751.889)"/>
            <path id="Path_53190" d="M-4192.224 6760.459c.878-3.012 3.142-6.481-7.089-8.449s-17.194-3.382-17.133-6.988c.046-2.851-2.336-6.529-5.258-6.887a20.159 20.159 0 0 0-5.581 5.669s-6.606.852-7.86 4.987 5.27 10.162 18.447 12.548 23.598 2.134 24.474-.88z" class="cls-3" data-name="Path 53190" transform="translate(4235.297 -6738.135)"/>
        </g>
        <path id="Path_53191" d="M-3937.314 6100.445a32.123 32.123 0 0 1-4.255.558s5.3.07 6 1.882-.126 6.324-.126 7.856-1.9.863-1.9.863h-3.069a7.146 7.146 0 0 1 3.349 2.511 12 12 0 0 1 1.1 4.533s1.063-5.37 3.367-6.624l2.3-1.258s-3.767 1.483-3.7-.025a33.17 33.17 0 0 0 .209-4.8c-.139-2.008-1.6-3.544-.071-4.45s3.558-1.884 3.558-1.884-3.907.629-4.4.21-1.272-6.586-1.272-6.586.794 6.795-1.09 7.214z" class="cls-2" data-name="Path 53191" transform="translate(-486.912 -1198.924)"/>
        <path id="Path_53192" d="M-3724.194 6303.92a19.241 19.241 0 0 1 1.518 8.35 65.969 65.969 0 0 1-.762 9.062s1.9-4.621 1.692-7.975 1.6-2.235 1.614-.222a17.788 17.788 0 0 0-.228-2.694c-.197-.764-3.09-6.22-3.834-6.521z" class="cls-2" data-name="Path 53192" transform="translate(-678.266 -1384.394)"/>
        <ellipse id="Ellipse_1092" cx="41.457" cy="36.024" class="cls-3" data-name="Ellipse 1092" rx="41.457" ry="36.024" transform="translate(-4468.628 4733.537)"/>
        <path id="Path_53193" d="M-4002.8 5631.435s-5.271-1.253-5.786-5.591l-2.024-17.064-14.686-1.562s.912 10.39.025 17.282c-.5 3.933-2.422 6.727-3.349 5.792l-2.544-2.573 8.688 14.059z" class="cls-2" data-name="Path 53193" transform="translate(-408.044 -771.088)"/>
        <path id="Path_53194" d="M-3847.3 5949c.319 3.06-2.613 6.5-2.613 6.5s4.132-3.15 5.054-2.276a10.967 10.967 0 0 0 .609-2.628c0-1.383-1.939-3.523-2.607-4.8-.347-.656-2.174-1.058-3.859-1.29-1.774 1.744-3.5 3.439-4.718 4.8a6.693 6.693 0 0 0-.2 2.655 3.6 3.6 0 0 0 .272.747 33.437 33.437 0 0 1 4.287-2.868c1.801-.772 3.456-3.896 3.775-.84z" class="cls-5" data-name="Path 53194" transform="translate(-562.497 -1068.011)"/>
        <path id="Path_53195" d="M-4033.81 6223.739l4.793-3.235s-2.2-6.517-3.038-6.359a3.307 3.307 0 0 0-1.451.713l.038 2.386-.972 3.982s-.006 2.943.63 2.513z" class="cls-6" data-name="Path 53195" transform="translate(-405.158 -1305.363)"/>
        <path id="Path_53196" d="M-4042.449 6369.027s-3.743 13.368-3.209 23.793.624 16.222 2.586 16.044 3.5-4.635 3.5-4.635 1.889 12.478-2.28 14.169-5.877-1.068-6.181-8.554 1.033-31.193 5.584-40.817z" class="cls-4" data-name="Path 53196" transform="translate(-393.16 -1441.707)"/>
        <g id="Group_23662" data-name="Group 23662" transform="translate(-4443.26 4927.005)">
            <path id="Path_53197" d="M-4063.455 6575.131l-1.576 2.414.22 3.069.7 2.146a2.939 2.939 0 0 0 1.836-1.917 3.218 3.218 0 0 0 0-2.784z" class="cls-6" data-name="Path 53197" transform="translate(4065.031 -6550.144)"/>
            <path id="Path_53198" d="M-4035.553 6640.361l-.684 3.146 1.164 4.208 1.847.41 1.164-2.63s-.205-.893-.827-2.946a3.118 3.118 0 0 0-2.664-2.188z" class="cls-6" data-name="Path 53198" transform="translate(4039.684 -6607.566)"/>
            <path id="Path_53199" d="M-4050.036 6482.393c-.1-.483-1.612-4.844-1.878-5.942s-3.616-3.144-3.616-3.144l-1.841 4.479c0 .049.4 6.085 1.269 7.254s4.309 1.988 4.309 1.988 1.861-4.153 1.757-4.635z" class="cls-6" data-name="Path 53199" transform="translate(4058.288 -6460.508)"/>
            <path id="Path_53200" d="M-4015.173 6367.077l-.46-.684s-4.127 3.48-4.1 7.01.557 4.528 2.047 5.878a6.555 6.555 0 0 0 1.478 1.035 68.424 68.424 0 0 1 1.035-13.239z" class="cls-6" data-name="Path 53200" transform="translate(4025.155 -6366.393)"/>
            <path id="Path_53201" d="M-3962.613 6489.524s.693-4.916.18-6.269a17.1 17.1 0 0 0-1.84-3.159s-3.2 2.6-3.2 4.455v4.973l2.785 3.12z" class="cls-6" data-name="Path 53201" transform="translate(3979.154 -6466.485)"/>
            <path id="Path_53202" d="M-3972.493 6590.637c-.247-1.6-.839-3.819-.839-3.819l-.809-.238c.223.951.522 2.348.8 4.057.231 1.046.481 2.136.729 3.158a12.4 12.4 0 0 0 .119-3.158z" class="cls-6" data-name="Path 53202" transform="translate(3985.021 -6560.222)"/>
            <path id="Path_53203" d="M-3995.632 6582.125s-1.118 4.066-.807 5.427a11.4 11.4 0 0 0 1.771 3.258l2.141.5s.02-.092.047-.246a60.111 60.111 0 0 0-.54-4.345c-.351-1.576-.663-3.06-.872-4.077z" class="cls-6" data-name="Path 53203" transform="translate(4004.698 -6556.3)"/>
        </g>
        <g id="Group_23663" data-name="Group 23663" transform="translate(-4441.02 4929.773)">
            <path id="Path_53204" d="M-4040.617 6492.939c-.029-.585-.061-1.187-.091-1.808a58.032 58.032 0 0 1 .466-9.809 19.656 19.656 0 0 0-.819-.615c-.6 3.693-1.059 7.6-1.384 11.331a8.089 8.089 0 0 0 1.828.901z" class="cls-5" data-name="Path 53204" transform="translate(4042.908 -6469.792)"/>
            <path id="Path_53205" d="M-3964.36 6480.7c-.024.021-.052.043-.084.072-.165 3.149-.6 10.432-1.09 9.731-.624-.892-1.943-3.566-1.943-3.566s.16 1.587.412 3.583l2.373 2.657.2-.3c.179-4.207.156-9.686.132-12.177z" class="cls-5" data-name="Path 53205" transform="translate(3976.914 -6469.789)"/>
            <path id="Path_53206" d="M-4019.731 6393.767a16.627 16.627 0 0 0 .183 2.623 111.057 111.057 0 0 1 1.42-6.864 11.624 11.624 0 0 0-.787 1.28c-.29.932-.562 1.922-.816 2.961z" class="cls-5" data-name="Path 53206" transform="translate(4022.913 -6389.525)"/>
            <path id="Path_53207" d="M-4045.8 6598.039a3.21 3.21 0 0 0 0-2.783l-.236-.588c-.113 1.483-.2 2.925-.275 4.294a4.012 4.012 0 0 0 .511-.923z" class="cls-5" data-name="Path 53207" transform="translate(4046.314 -6570.112)"/>
            <path id="Path_53208" d="M-4033.227 6648.125l.2-.451c-1.029-.37-1.443-2.84-1.741-7.124a3.008 3.008 0 0 0-.786-.189l-.684 3.146 1.164 4.208z" class="cls-5" data-name="Path 53208" transform="translate(4037.444 -6610.335)"/>
        </g>
        <path id="Path_53209" d="M-4026 5939.571c.668 1.272 2.608 3.412 2.608 4.8s-1.688 5.64-1.688 5.64a29.938 29.938 0 0 1-4.464.735c-1.338 0-4.75-2.876-5.236-5s1.892-7.746 1.892-7.746 6.221.3 6.888 1.571zm-24.778 22.175a15.2 15.2 0 0 0-1.728.038l-1.352 4.867a24.355 24.355 0 0 0 1.686 4.252 3 3 0 0 0 1.081 1.041.906.906 0 0 1 .526-.283c1.05-.07.979-3.922-.7-5.952l-1.68-2.03c-.003-.005 3.081 3.708 3.081 1.33.002-1.59.282-2.462-.912-3.263zm10.151-12.652a2.778 2.778 0 0 0-.516-1.18c-1.293.374-2.845 1.019-4.008 1.368 1.938 1.055 4.602 1.118 4.526-.189zm-10.172-6.95c-.723-2.48-5.462-4.71-5.462-4.71l-.521 1.062a12.944 12.944 0 0 1 1.3 2.58c1.244 3.316 1.106 8.843 1.106 8.843-.9-5.113-4.285-6.288-4.285-6.288a68.743 68.743 0 0 0-.548 7.391l3.357 3.639 5.336-4.347s.444-5.689-.284-8.17zm13.468 7.354l-1.451-1.564c-.174-.252-.534-.331-1.006-.3a10.5 10.5 0 0 0 .521 1.69c.141.416.908.403 1.938.176zm11.88 4.382c-1.638-.521-7.156-.124-7.156-.124s-.041.151-.108.417c.392.293.761.575 1.09.825 2.391 1.167 4.816-.125 6.176-1.119zm-17.731 18.2a27.707 27.707 0 0 0 1.952 2.379h.081s1.9.672 1.9-.864.825-6.042.127-7.854a1.206 1.206 0 0 0-.136-.255 32.25 32.25 0 0 0-1.075.376c-2.028.743-2.847 6.215-2.847 6.215zm5.583-21.273a20.8 20.8 0 0 1 2.434 1.568l.121-.409-2.28-2.458c-.626.292-1.328.792-.276 1.292zm-9.457 22.5a14.746 14.746 0 0 0 1.878-5.487c.188-2.654-1-2.966-1.878-4.711a2.152 2.152 0 0 0-1.265-.959 3.882 3.882 0 0 0-.074 1.328 6.482 6.482 0 0 0 .341 1.489c-.192.092-.487.494-.341 2.151a30.819 30.819 0 0 0 1.4 5.809 2.817 2.817 0 0 0-.37.324c.197.03.311.049.311.049zm9.769 9.55s-.7 4.687.05 6.248a4.6 4.6 0 0 0 1.081 1.4 14.384 14.384 0 0 0 2.051-2.523 41.2 41.2 0 0 0 3.234-6.17l-.329-.5s-1.788-.333-6.086 1.538zm-8.586-26.453s-.591 1.01-1.2 2.317l1.749 1.737a32.169 32.169 0 0 0 5.713-.882 28.744 28.744 0 0 0-.157-3.487s.218 1.7.493 3.378a4.468 4.468 0 0 0 .839-.377c1.3-.8 2.609-4.587 3.145-6.288a10.954 10.954 0 0 0-2.38-1.136c-1.708-.383-1.553 1.435-1.553 1.435a9.908 9.908 0 0 1-1.086-1.281c-.418-.557-3.192.522-5.359 1.481 1.446-1 2.28-2.244 1.166-2.8a13.291 13.291 0 0 1-1.534-.942c-1.909.968-3.463 6.748-3.463 6.748l2.125 2.113c.832-1.029 1.503-2.02 1.503-2.02zm14.325 7.31a2 2 0 0 0 1.326-.8c.564-.739.576-3.3-.278-4.782-.584-1.013-1.667-2.688-2.292-3.644-.448 1.809-1.508 6.454-.962 7.759a19.685 19.685 0 0 0 4.45 5.243 7.456 7.456 0 0 0 .229-1.388c.115-2.282-2.472-2.395-2.472-2.395zm-3.5 1.229a6.3 6.3 0 0 0-3.284.263c-.179.9.634 2.12.737 3.593a33.094 33.094 0 0 1-.209 4.8c-.07 1.51 3.7.026 3.7.026l-2.3 1.258a4.177 4.177 0 0 0-1.4 1.412 13.227 13.227 0 0 0 4.461-1.671c1.582-.858 2.6-5.826 2.6-5.826s-2.992-3.477-4.3-3.862zm-10.411 11.983a16.334 16.334 0 0 0-2.869 2.558v1.146s-.2-.158-.515-.414a2.77 2.77 0 0 0-.3.721 12.01 12.01 0 0 0 .083 4.214c.055-.237.087-.361.087-.361s.481 1.179 1.239 2.659a24.534 24.534 0 0 0 3.178 1.342l2.973-4.061-.362-2.759s.161-2.051-3.509-5.052zm22.99-17.948s-1.409-4.452-2.853-5.043a33.392 33.392 0 0 0-3.131 3.63c-1.254 1.823-.285 3.53.4 4.727.6 1.046 2.5-.438 2.971-.823-1.961 1.678-2.432 4.453-2.348 7.052a10.556 10.556 0 0 0 4.064-1.165 33.821 33.821 0 0 1 .902-8.385z" class="cls-6" data-name="Path 53209" transform="translate(-383.358 -1061.777)"/>
        <g id="Group_23664" data-name="Group 23664" transform="translate(-4441.452 4875.656)">
            <path id="Path_53210" d="M-3847.811 6127.828a5.744 5.744 0 0 0 .061 1.88 12.32 12.32 0 0 0 2.154-.633 11.6 11.6 0 0 1-2.215-1.247z" class="cls-5" data-name="Path 53210" transform="translate(3872.044 -6105.037)"/>
            <path id="Path_53211" d="M-3880.159 6081.349c-.77.564-1.192 2.293-1.155 3.938a9.305 9.305 0 0 0 1.175-1.985 3.58 3.58 0 0 1-.02-1.953z" class="cls-5" data-name="Path 53211" transform="translate(3901.5 -6064.122)"/>
            <path id="Path_53212" d="M-4044.7 5952.234a1.408 1.408 0 0 1 .538-.438l1.817-1.482c-.18-.426-.407-.976-.7-1.691-1.467-3.6.318-4.429.318-4.429s.166.121.448.316a11.655 11.655 0 0 0-.352-2.366c-.723-2.48-5.464-4.71-5.464-4.71l-.213.434a20.567 20.567 0 0 1 2.62 6.326 61.3 61.3 0 0 1 0 6.565s-.607.765-1.119-.956a5.718 5.718 0 0 0-2.549-3.061c-.808-.635-.571 3.6-.423 5.646l2.1 2.272z" class="cls-5" data-name="Path 53212" transform="translate(4049.925 -5937.433)"/>
            <path id="Path_53213" d="M-3958.531 6150.463a4.4 4.4 0 0 0 .533 1.974s-.956 1.4 0 4.525a6.472 6.472 0 0 0 .67 1.544 11.267 11.267 0 0 0 .775-3.165c.188-2.654-1-2.966-1.878-4.711a1.289 1.289 0 0 0-.1-.167z" class="cls-5" data-name="Path 53213" transform="translate(3969.472 -6124.962)"/>
            <path id="Path_53214" d="M-3847.3 5949c.319 3.06-2.613 6.5-2.613 6.5s4.132-3.15 5.054-2.276a10.967 10.967 0 0 0 .609-2.628c0-1.383-1.939-3.523-2.607-4.8-.347-.656-2.174-1.058-3.859-1.29-1.774 1.744-3.5 3.439-4.718 4.8a6.693 6.693 0 0 0-.2 2.655 3.6 3.6 0 0 0 .272.747 33.437 33.437 0 0 1 4.287-2.868c1.801-.772 3.456-3.896 3.775-.84z" class="cls-5" data-name="Path 53214" transform="translate(3878.955 -5943.667)"/>
            <path id="Path_53215" d="M-3969.357 6081.763a47.243 47.243 0 0 1-4.539 2.1l1.283 1.276a20.516 20.516 0 0 0 3.256-3.376z" class="cls-5" data-name="Path 53215" transform="translate(3982.996 -6064.487)"/>
            <path id="Path_53216" d="M-3868.1 6167.383a7.559 7.559 0 0 1-.043-1.153 3.85 3.85 0 0 0-1.01-.077 5 5 0 0 0-.277 1.6c0 1.328-.054 5.106 1.281 6.542s3.294-2.181 3.294-2.181-.319.319-1.755.371-1.123-1.485-1.49-5.102z" class="cls-5" data-name="Path 53216" transform="translate(3891.041 -6138.769)"/>
            <path id="Path_53217" d="M-3764.718 6091.119s.089-.056.24-.17l-.059-.117a6.125 6.125 0 0 1-.181.287z" class="cls-5" data-name="Path 53217" transform="translate(3798.858 -6072.469)"/>
            <path id="Path_53218" d="M-3950.731 6269.8a13.647 13.647 0 0 0-2.439-2.5s-.538.369-1.2.926a7.326 7.326 0 0 0 .785 1.406 1.679 1.679 0 0 0 2.854.168z" class="cls-5" data-name="Path 53218" transform="translate(3965.811 -6227.809)"/>
            <path id="Path_53219" d="M-3947.762 6089.59c-.554-.5-1.2 1.024-2.847 3.85l.879.873s.933-.061 2.137-.207c.512-1.631.343-4.051-.169-4.516z" class="cls-5" data-name="Path 53219" transform="translate(3962.496 -6071.293)"/>
        </g>
        <path id="Path_53220" d="M-4227.723 5675.669s-.752 2.262 2.665 4.927 7.3 7.763 8.75 8.168 1.215.753-.87-3.361-6.605-9.734-10.545-9.734z" class="cls-4" data-name="Path 53220" transform="translate(-234.95 -831.347)"/>
        <g id="Group_23665" data-name="Group 23665" transform="translate(-4466.126 4842.296)">
            <path id="Path_53221" d="M-4159.311 5746.776l.5.482c2.673 2.543 4.3 3.326 5.74 3.64s1.463-.574 1.463-.574a74.693 74.693 0 0 1-4.784-6.948l-2.669.061c.005.463-.16 1.885-.25 3.339z" class="cls-6" data-name="Path 53221" transform="translate(4170.891 -5733.247)"/>
            <path id="Path_53222" d="M-4115.969 5758.118a.3.3 0 0 0 .038-.152 25 25 0 0 0-1.826-2.044c.319.525.6.982.836 1.342.128.315.208.5.208.5s-.01-.086-.036-.238c.388.549.649.788.78.592z" class="cls-6" data-name="Path 53222" transform="translate(4134.312 -5744.29)"/>
            <path id="Path_53223" d="M-4252.668 5659.66a3.981 3.981 0 0 0-3.382-.827 11.194 11.194 0 0 0 .775 3.552 17.785 17.785 0 0 0 3.322 4.012 2.8 2.8 0 0 0 2.225.625 26.432 26.432 0 0 0-.417-4.18 13.456 13.456 0 0 0-2.523-3.182z" class="cls-6" data-name="Path 53223" transform="translate(4256.05 -5658.749)"/>
            <path id="Path_53224" d="M-4197.4 5673.193c1.107.139 1.993.3 1.993.3-.892-2.168-3.558-4.585-5.774-6.223a25.47 25.47 0 0 0-1.189-.8 12.279 12.279 0 0 0 1.006 3.55c.693 1.09 2.857 3.034 3.964 3.173z" class="cls-6" data-name="Path 53224" transform="translate(4208.797 -5665.544)"/>
            <path id="Path_53225" d="M-4157.334 5778.4a28.282 28.282 0 0 1-2.426-2.092 6.82 6.82 0 0 0 .284 3.117 41.885 41.885 0 0 0 3.162 3.447h4.05s.18-1.084.271-2.364c-.924.313-2.737-.115-5.341-2.108z" class="cls-6" data-name="Path 53225" transform="translate(4171.311 -5762.238)"/>
        </g>
        <g id="Group_23666" data-name="Group 23666" transform="translate(-4462.744 4844.322)">
            <path id="Path_53226" d="M-4193.626 5690.378a19.422 19.422 0 0 0-4.458-4.388 5.056 5.056 0 0 0 .494 1.212c.695 1.091 2.857 3.036 3.963 3.175z" class="cls-5" data-name="Path 53226" transform="translate(4201.64 -5684.755)"/>
            <path id="Path_53227" d="M-4225.06 5680.6c.048.034.095.073.142.111a14.63 14.63 0 0 0-.355-2.968 10.826 10.826 0 0 0-1.346-1.931 4.757 4.757 0 0 0-1.106-.14s-.752 2.259 2.665 4.928z" class="cls-5" data-name="Path 53227" transform="translate(4227.795 -5675.669)"/>
            <path id="Path_53228" d="M-4155.378 5748.6c1.448.4 1.216.753-.87-3.361a26.658 26.658 0 0 0-.887-1.6l-1.273.029c0 .335-.084 1.167-.167 2.149 1.385 1.457 2.541 2.604 3.197 2.783z" class="cls-5" data-name="Path 53228" transform="translate(4166.86 -5735.511)"/>
        </g>
        <path id="Path_53229" d="M-3671.109 5636.052a52.67 52.67 0 0 1-5.07 2.614c.874-3.142 5.088-6.183 5.088-6.183s.143 1.35.376 3.256a2.825 2.825 0 0 1-.394.313zm.515.651c-1.5 1.974-3.6 2.212-5.8 3.309a7.262 7.262 0 0 0-.215.112 10.688 10.688 0 0 0-.512 4.771c.426 2.861.81 1.84.81 1.84l4.712-2.836s1.857-.989 1.356-4.559c-.128-.914-.246-1.809-.351-2.64zm6.118-14.153a2.029 2.029 0 0 0-1.158.413 5.89 5.89 0 0 1-.441 1.074 5.445 5.445 0 0 1-1.44 1.411 17.607 17.607 0 0 0-1.21 4.266l1.286 2.947a9.9 9.9 0 0 0 3.239-4.107 12.984 12.984 0 0 0 .746-4.335z" class="cls-6" data-name="Path 53229" transform="translate(-719.626 -784.586)"/>
        <g id="Group_23667" data-name="Group 23667" transform="translate(-4396.703 4839.632)">
            <path id="Path_53230" d="M-3671.053 5764.709c-1.842 1.587-3.728 2.8-5.04 3.936.408 2.506.765 1.555.765 1.555l4.711-2.834q.653-.843 1.208-1.723a6.443 6.443 0 0 0 .15-2.838 13.149 13.149 0 0 1-1.794 1.904z" class="cls-5" data-name="Path 53230" transform="translate(3676.093 -5747.686)"/>
            <path id="Path_53231" d="M-3563.76 5637.811a9.823 9.823 0 0 0 .068-1.318c-.243.77-.239 1.154-.068 1.318z" class="cls-5" data-name="Path 53231" transform="translate(3577.315 -5636.492)"/>
            <path id="Path_53232" d="M-3663.749 5710.341c.659-.285 1.721-1.178 2.956-1.671a4.4 4.4 0 0 0 1.722-1.624c-.108-.94-.17-1.521-.17-1.521a18.036 18.036 0 0 0-4.508 4.816z" class="cls-5" data-name="Path 53232" transform="translate(3665.226 -5697.262)"/>
            <path id="Path_53233" d="M-3605.466 5659.214c.2-.569.112-.682-.213-.479a21.55 21.55 0 0 0-.643 2.749c.386-.947.683-1.774.856-2.27z" class="cls-5" data-name="Path 53233" transform="translate(3614.673 -5655.99)"/>
        </g>
        <circle id="Ellipse_1093" cx="12.094" cy="12.094" r="12.094" class="cls-4" data-name="Ellipse 1093" transform="translate(-4455.598 4738.629)"/>
        <g id="Group_23676" data-name="Group 23676" transform="translate(-4494.692 4913.892)">
            <g id="Group_23668" data-name="Group 23668" transform="translate(26.637 1.197)">
                <path id="Path_53234" d="M-4272.157 6466.634v-.328a.808.808 0 0 0 0 .328z" class="cls-7" data-name="Path 53234" transform="translate(4272.172 -6442.43)"/>
                <path id="Path_53235" d="M-3478.889 6466.634a.776.776 0 0 0 0-.328z" class="cls-8" data-name="Path 53235" transform="translate(3573.849 -6442.43)"/>
                <path id="Path_53236" d="M-4224.63 6266.85h-.109c-49.691.011-47.418 7.578-47.418 7.578v16.3c.25-1.456 3.979-7.248 47.473-7.252s47.222 5.8 47.472 7.252v-16.3s2.274-7.567-47.418-7.578z" class="cls-3" data-name="Path 53236" transform="translate(4272.173 -6266.85)"/>
            </g>
            <g id="Group_23670" data-name="Group 23670" transform="translate(38.282 5.086)">
                <g id="Group_23669" data-name="Group 23669">
                    <path id="Path_53237" d="M-4167.449 6317.891a5.915 5.915 0 0 1-2.349.722 4.279 4.279 0 0 1-5.044-4.059 4.555 4.555 0 0 1 4.172-5.344 4.881 4.881 0 0 1 2.206.146l-.167.99a4.328 4.328 0 0 0-1.881-.158c-2.129.258-3.381 1.791-3.095 4.178.269 2.225 1.722 3.5 3.934 3.232a4.749 4.749 0 0 0 1.868-.607z" class="cls-2" data-name="Path 53237" transform="translate(4174.886 -6307.98)"/>
                    <path id="Path_53238" d="M-4095.865 6303.355l.247 3.822 4.417-.284-.247-3.822 1.193-.075.591 9.134-1.194.077-.276-4.283-4.417.286.277 4.28-1.179.077-.591-9.135z" class="cls-2" data-name="Path 53238" transform="translate(4106.361 -6302.559)"/>
                    <path id="Path_53239" d="M-4013.554 6307.173l-.863 2.907-1.223.038 2.833-9.245 1.424-.043 3.4 9.056-1.263.037-1.065-2.847zm2.971-1.013l-.976-2.606c-.222-.593-.374-1.131-.525-1.656h-.027c-.12.548-.251 1.108-.412 1.671l-.815 2.674z" class="cls-2" data-name="Path 53239" transform="translate(4034.702 -6300.65)"/>
                    <path id="Path_53240" d="M-3926.383 6304.474c-.075-1.277-.162-2.812-.155-3.953h-.041a54.035 54.035 0 0 1-1.138 3.481l-1.6 4.448h-.9l-1.5-4.353c-.44-1.288-.812-2.468-1.075-3.554h-.029a126.903 126.903 0 0 1-.156 4.048l-.228 3.925-1.127.006.6-9.157 1.507-.007 1.583 4.422c.385 1.125.7 2.128.938 3.079h.041c.228-.924.547-1.932.95-3.088l1.61-4.435 1.507-.006.612 9.151h-1.153z" class="cls-2" data-name="Path 53240" transform="translate(3963.12 -6299.335)"/>
                    <path id="Path_53241" d="M-3832.252 6299.492a13.59 13.59 0 0 1 2.271-.138 3.745 3.745 0 0 1 2.554.8 2.455 2.455 0 0 1 .769 1.928 2.7 2.7 0 0 1-.738 1.944 3.806 3.806 0 0 1-2.815.956 4.019 4.019 0 0 1-.948-.1l-.062 3.667-1.182-.021zm1.107 4.435a3.951 3.951 0 0 0 .977.109c1.426.025 2.307-.653 2.326-1.916.021-1.208-.825-1.808-2.127-1.828a4.951 4.951 0 0 0-1.116.077z" class="cls-2" data-name="Path 53241" transform="translate(3873.4 -6299.351)"/>
                    <path id="Path_53242" d="M-3761.829 6301.182l-.306 9.15-1.181-.04.307-9.149z" class="cls-2" data-name="Path 53242" transform="translate(3812.583 -6300.927)"/>
                    <path id="Path_53243" d="M-3721.679 6307.759c-.184 3.147-2.192 4.7-4.524 4.566-2.414-.141-4-2.111-3.837-4.878.169-2.9 2.084-4.694 4.524-4.551 2.494.146 3.996 2.153 3.837 4.863zm-7.1-.266c-.115 1.952.841 3.764 2.7 3.872s3.029-1.55 3.15-3.625c.106-1.816-.732-3.771-2.7-3.885s-3.032 1.632-3.15 3.639z" class="cls-2" data-name="Path 53243" transform="translate(3783.301 -6302.462)"/>
                    <path id="Path_53244" d="M-3641.541 6317.378l1.025-9.1 1.283.144 2.4 4.932a25.835 25.835 0 0 1 1.3 3.139l.028-.01c.029-1.226.126-2.336.287-3.753l.429-3.808 1.107.125-1.026 9.1-1.187-.134-2.368-4.94a28.985 28.985 0 0 1-1.358-3.229l-.043.01a60.256 60.256 0 0 1-.328 3.762l-.438 3.885z" class="cls-2" data-name="Path 53244" transform="translate(3705.384 -6307.213)"/>
                </g>
            </g>
            <g id="Group_23671" data-name="Group 23671" transform="translate(26.633 19.544)">
                <path id="Path_53245" d="M-4149.259 6554.048a.166.166 0 0 0 0-.075z" class="cls-9" data-name="Path 53245" transform="translate(4163.977 -6537.95)"/>
                <path id="Path_53246" d="M-4271.7 6424.716l-.483 1.258s-.763 4.616 7.178 6.8c6.824 1.873 7.473 3.069 7.52 3.368v-16.022c-9.883 1.396-13.156 3.337-14.215 4.596z" class="cls-2" data-name="Path 53246" transform="translate(4272.206 -6420.115)"/>
                <path id="Path_53247" d="M-3601.7 6554.048v-.075a.228.228 0 0 0 0 .075z" class="cls-9" data-name="Path 53247" transform="translate(3681.961 -6537.95)"/>
                <path id="Path_53248" d="M-3586.974 6425.974l-.483-1.258c-1.063-1.259-4.333-3.2-14.214-4.6v16.022c.046-.3.694-1.5 7.519-3.368 7.941-2.18 7.178-6.796 7.178-6.796z" class="cls-2" data-name="Path 53248" transform="translate(3681.937 -6420.115)"/>
            </g>
            <path id="Path_53249" d="M-4306.782 6400.4v-.328a1.981 1.981 0 0 1 .482-.929zm7.087-4.383c-3.611.961-5.4 1.976-6.274 2.786.876-.81 2.661-1.824 6.269-2.783zm-6.6 3.125a3.4 3.4 0 0 1 .315-.328 3.4 3.4 0 0 0-.32.331zm87.374-3.127c3.612.959 5.4 1.974 6.276 2.784-.879-.806-2.667-1.82-6.28-2.781zm6.287 2.8a3.361 3.361 0 0 1 .316.328 3.361 3.361 0 0 0-.32-.326zm-79.6 11.461c-.411-.522-1.923-1.584-7.372-3.079-7.94-2.181-7.177-6.8-7.177-6.8a.777.777 0 0 1 0-.328v-8.986c-3.565-.274-4.726 2.167-4.726 2.167v18.4c2.426-5.975 13.136-.652 16.389.118s3.033-1.13 3.033-1.13-.048-.125-.146-.36zm80.4-19.19v8.986a.809.809 0 0 1 0 .328s.763 4.616-7.18 6.8c-5.449 1.494-6.958 2.557-7.37 3.079-.1.234-.15.365-.15.365s-.22 1.9 3.035 1.13 13.963-6.093 16.386-.118v-18.4s-1.162-2.442-4.725-2.168zm-.484 8.057l.484 1.257v-.328a2 2 0 0 0-.488-.927z" class="cls-1" data-name="Path 53249" transform="translate(4333.437 -6375)"/>
            <path id="Path_53250" d="M-4302.169 6544.881zm-9.344-2.409s-.109 1.733 1.941 1.523 3.727-1.349 5.618-.754c1.626.514 1.777 1.4 1.786 1.64v-4.539c-3.863-1.009-7.958-1.288-9.346 2.13zm95.047 2.469v-.06c-.002.036-.001.059-.001.059zm9.345-2.469c-1.385-3.418-5.483-3.139-9.345-2.13v4.539c.012-.241.16-1.126 1.788-1.64 1.89-.595 3.57.543 5.619.754s1.937-1.523 1.937-1.523z" class="cls-2" data-name="Path 53250" transform="translate(4333.442 -6505.816)"/>
            <g id="Group_23672" data-name="Group 23672" transform="translate(1.197 27.46)">
                <path id="Path_53251" d="M-3466.176 6541.126z" class="cls-10" data-name="Path 53251" transform="translate(3588.097 -6534.558)"/>
                <path id="Path_53252" d="M-4288.817 6542.142a.133.133 0 0 1 .03-.011.133.133 0 0 0-.03.011z" class="cls-11" data-name="Path 53252" transform="translate(4312.264 -6535.441)"/>
                <path id="Path_53253" d="M-4296.087 6545.087l.057-.033-.057.033z" class="cls-12" data-name="Path 53253" transform="translate(4318.665 -6538.014)"/>
                <path id="Path_53254" d="M-4299.211 6547.18l.011-.008z" class="cls-13" data-name="Path 53254" transform="translate(4321.415 -6539.878)"/>
                <path id="Path_53255" d="M-3462.382 6542.131a.15.15 0 0 1 .034.011.15.15 0 0 0-.034-.011z" class="cls-14" data-name="Path 53255" transform="translate(3584.757 -6535.441)"/>
                <path id="Path_53256" d="M-4302.336 6549.386a.591.591 0 0 1 .057-.048.591.591 0 0 0-.057.048z" class="cls-15" data-name="Path 53256" transform="translate(4324.164 -6541.786)"/>
                <path id="Path_53257" d="M-3449.05 6549.338a.408.408 0 0 1 .055.048.408.408 0 0 0-.055-.048z" class="cls-16" data-name="Path 53257" transform="translate(3573.021 -6541.786)"/>
                <path id="Path_53258" d="M-3446.136 6552.176l.046.055z" class="cls-17" data-name="Path 53258" transform="translate(3570.456 -6544.284)"/>
                <path id="Path_53259" d="M-3455.311 6545.054c.018.012.037.021.055.033-.018-.012-.037-.021-.055-.033z" class="cls-18" data-name="Path 53259" transform="translate(3578.533 -6538.014)"/>
                <path id="Path_53260" d="M-3451.817 6547.171l.012.008z" class="cls-19" data-name="Path 53260" transform="translate(3575.457 -6539.878)"/>
                <path id="Path_53261" d="M-4284.771 6541.126z" class="cls-20" data-name="Path 53261" transform="translate(4308.703 -6534.558)"/>
                <path id="Path_53262" d="M-4309.828 6558.827l.048-.088z" class="cls-21" data-name="Path 53262" transform="translate(4330.761 -6550.061)"/>
                <path id="Path_53263" d="M-3441.45 6558.827a1.447 1.447 0 0 0-.048-.088c.017.028.032.061.048.088z" class="cls-21" data-name="Path 53263" transform="translate(3566.373 -6550.061)"/>
                <path id="Path_53264" d="M-3517.835 6576.4v-.922a2.527 2.527 0 0 0 0 .982v-.06z" class="cls-22" data-name="Path 53264" transform="translate(3633.614 -6564.801)"/>
                <path id="Path_53265" d="M-3495.876 6493.29a11.384 11.384 0 0 1 8.4-2.289 15.8 15.8 0 0 0-12.863-4.7l-7.868.61v8.531s.108 1.735-1.939 1.524-3.729-1.349-5.62-.753c-1.626.513-1.775 1.4-1.785 1.638v.061s-.291 1.37 2.351 1.781 12.159-4.524 27.02 1.7c-.001.007-4.172-7.573-7.696-8.103z" class="cls-1" data-name="Path 53265" transform="translate(3633.331 -6486.247)"/>
                <path id="Path_53266" d="M-4307.509 6555.243l.035-.048z" class="cls-23" data-name="Path 53266" transform="translate(4328.719 -6546.941)"/>
                <path id="Path_53267" d="M-4456.4 6496.214c-1.889-.6-3.569.544-5.619.753s-1.94-1.524-1.94-1.524v-8.531l-7.866-.61a15.8 15.8 0 0 0-12.864 4.7 11.389 11.389 0 0 1 8.4 2.289c-3.525.53-7.7 8.106-7.7 8.106 14.858-6.228 24.376-1.293 27.018-1.7s2.352-1.781 2.352-1.781v-.061c-.006-.244-.157-1.128-1.781-1.641z" class="cls-1" data-name="Path 53267" transform="translate(4484.692 -6486.247)"/>
                <path id="Path_53268" d="M-4305.136 6552.176c-.018.017-.032.037-.048.055.016-.018.03-.038.048-.055z" class="cls-24" data-name="Path 53268" transform="translate(4326.672 -6544.284)"/>
                <path id="Path_53269" d="M-3443.686 6555.243c-.012-.016-.024-.033-.037-.048.013.015.023.032.037.048z" class="cls-25" data-name="Path 53269" transform="translate(3568.331 -6546.941)"/>
                <path id="Path_53270" d="M-4233.447 6575.482v.922a.33.33 0 0 1 0 .061 2.527 2.527 0 0 0 0-.983z" class="cls-26" data-name="Path 53270" transform="translate(4263.521 -6564.801)"/>
            </g>
            <g id="Group_23673" data-name="Group 23673" transform="translate(25.439)">
                <path id="Path_53271" d="M-4280.963 6459.028a1.2 1.2 0 0 1-1.146-.854 1.964 1.964 0 0 1-.034-.876 1.2 1.2 0 0 1 1.283-.989 1.2 1.2 0 0 1 1.094 1.193v.328a1.2 1.2 0 0 1-1.022 1.187 1.182 1.182 0 0 1-.175.011zm.7-1.407l.483.083a.589.589 0 0 0-.032-.216z" class="cls-27" data-name="Path 53271" transform="translate(4282.174 -6432.429)"/>
                <path id="Path_53272" d="M-3487.691 6459.026a1.248 1.248 0 0 1-.174-.011 1.2 1.2 0 0 1-1.024-1.186v-.328a1.2 1.2 0 0 1 1.1-1.193 1.194 1.194 0 0 1 1.28.991 1.933 1.933 0 0 1-.032.872 1.2 1.2 0 0 1-1.15.855zm-1.147-1.539a.55.55 0 0 0-.034.216l.481-.081z" class="cls-27" data-name="Path 53272" transform="translate(3583.849 -6432.429)"/>
                <path id="Path_53273" d="M-4186.017 6283.118a1.2 1.2 0 0 1-1.179-.994c-.01-.062-1.589-6.25-46.294-6.256s-46.279 6.193-46.29 6.256a1.2 1.2 0 0 1-1.282.988 1.193 1.193 0 0 1-1.1-1.19v-16.2a2.654 2.654 0 0 1 .6-1.924c2.356-3.168 12.6-6.946 48.013-6.953h.11c35.415.007 45.658 3.785 48.015 6.953a2.642 2.642 0 0 1 .6 1.924v16.2a1.192 1.192 0 0 1-1.095 1.19.737.737 0 0 1-.098.006zm-47.473-9.644c18.593 0 32.135 1.052 40.249 3.117a22.622 22.622 0 0 1 6.027 2.286v-13.253a1.042 1.042 0 0 1 .01-.151c-.151-.441-3.012-6.221-46.23-6.23h-.108c-43.219.01-46.079 5.789-46.23 6.23a1.041 1.041 0 0 1 .008.151v13.253a22.664 22.664 0 0 1 6.028-2.286c8.115-2.065 21.657-3.114 40.246-3.116zm46.294-7.975zm.03-.213zm-92.644 0zm92.646 0zm-92.647 0zm92.647 0zm-92.648 0z" class="cls-2" data-name="Path 53273" transform="translate(4282.173 -6256.85)"/>
            </g>
            <g id="Group_23674" data-name="Group 23674" transform="translate(25.437 18.347)">
                <path id="Path_53274" d="M-4158.059 6546.442a1.514 1.514 0 0 1-.174-.012 1.2 1.2 0 0 1-1.025-1.185v-.076a1.2 1.2 0 0 1 1.1-1.193 1.2 1.2 0 0 1 1.275 1 1.383 1.383 0 0 1-.036.605 1.2 1.2 0 0 1-1.14.861zm-1.147-1.539a1.009 1.009 0 0 0-.035.452l1.019-.161z" class="cls-27" data-name="Path 53274" transform="translate(4173.975 -6527.95)"/>
                <path id="Path_53275" d="M-4266.28 6428.533a1.2 1.2 0 0 1-1.124-.787c-.211-.208-1.41-1.17-6.712-2.626-8.879-2.434-8.081-7.913-8.043-8.147a1.117 1.117 0 0 1 .065-.232l.483-1.257a1.238 1.238 0 0 1 .2-.346c1.844-2.181 6.877-3.864 14.961-5.013a1.214 1.214 0 0 1 .954.281 1.2 1.2 0 0 1 .411.9v16.024a1.2 1.2 0 0 1-1.1 1.194.534.534 0 0 1-.095.009zm-1.085-.745zm-.1-.269zm-12.338-10.074c-.022.606.176 3.684 6.317 5.367a36.209 36.209 0 0 1 6 2.091v-12.2c-8.55 1.341-11.184 3.04-11.979 3.852z" class="cls-2" data-name="Path 53275" transform="translate(4282.193 -6410.114)"/>
                <path id="Path_53276" d="M-3610.5 6546.445a1.2 1.2 0 0 1-1.147-.857 1.368 1.368 0 0 1-.035-.6 1.2 1.2 0 0 1 1.275-1.007 1.2 1.2 0 0 1 1.1 1.2v.074a1.2 1.2 0 0 1-1.024 1.185 1.405 1.405 0 0 1-.169.005zm.166-1.246l1.018.16a1.041 1.041 0 0 0-.035-.453z" class="cls-27" data-name="Path 53276" transform="translate(3691.958 -6527.953)"/>
                <path id="Path_53277" d="M-3610.472 6428.532h-.094a1.2 1.2 0 0 1-1.1-1.193v-16.029a1.193 1.193 0 0 1 .413-.9 1.2 1.2 0 0 1 .952-.282c8.086 1.147 13.12 2.833 14.961 5.014a1.224 1.224 0 0 1 .2.344l.483 1.258a1.15 1.15 0 0 1 .063.233c.039.234.837 5.712-8.041 8.147-5.3 1.455-6.5 2.417-6.713 2.626a1.2 1.2 0 0 1-1.124.782zm1.085-.743zm.1-.269zm.014-14.82v12.2a36.373 36.373 0 0 1 6.007-2.089c6.141-1.684 6.34-4.761 6.317-5.367l-.344-.894c-.797-.811-3.432-2.511-11.984-3.85z" class="cls-2" data-name="Path 53277" transform="translate(3691.935 -6410.113)"/>
            </g>
            <path id="Path_53278" d="M-4233.667 6404.344a3.05 3.05 0 0 1-2.1-.683 2.364 2.364 0 0 1-.768-1.964 1.22 1.22 0 0 1 .078-.307l.154-.377a1.172 1.172 0 0 1 .169-.285c.881-1.114 3.5-2.258 7.993-3.49 6.14-1.686 6.339-4.763 6.317-5.368l-.344-.893a.992.992 0 0 0-.1-.092l-.006-.005c-.673-.622-2.22-1.56-5.771-2.506a1.19 1.19 0 0 1-.81-.734 1.193 1.193 0 0 1 .122-1.086 1.2 1.2 0 0 1 1.305-.494 21.607 21.607 0 0 1 5.582 2.175v-5.947a1.2 1.2 0 0 1 1.1-1.195c4.334-.333 5.836 2.718 5.9 2.847a1.214 1.214 0 0 1 .117.514v18.4a1.2 1.2 0 0 1-.969 1.173 1.192 1.192 0 0 1-1.337-.724c-1.423-3.5-7.123-1.844-12.357-.015-1.059.371-1.974.688-2.646.848a7.132 7.132 0 0 1-1.629.208zm-.256-2.406a3.736 3.736 0 0 0 1.341-.136c.553-.129 1.412-.43 2.408-.778a36.052 36.052 0 0 1 8.154-2.119 8.544 8.544 0 0 1 4.9.816v-14.936a3.34 3.34 0 0 0-2.332-1.285v7.68a2.091 2.091 0 0 1 .01.439 5.669 5.669 0 0 1-.775 3.145c-1.225 2.182-3.679 3.79-7.291 4.781-4.192 1.155-5.811 1.985-6.415 2.393zm-68.64 2.406a7.145 7.145 0 0 1-1.636-.212c-.674-.16-1.587-.477-2.646-.848-5.234-1.83-10.936-3.486-12.356.015a1.2 1.2 0 0 1-1.34.724 1.2 1.2 0 0 1-.967-1.173v-18.4a1.173 1.173 0 0 1 .118-.514c.06-.129 1.561-3.182 5.9-2.847a1.2 1.2 0 0 1 1.1 1.195v5.947a21.608 21.608 0 0 1 5.58-2.175 1.2 1.2 0 0 1 1.266.438l.013.018a1.193 1.193 0 0 1 .161 1.093 1.2 1.2 0 0 1-.822.765c-3.552.946-5.1 1.885-5.771 2.506l-.007.009c-.033.031-.063.062-.092.091l-.343.893c-.025.605.172 3.683 6.315 5.368 4.5 1.232 7.112 2.375 7.993 3.49a1.235 1.235 0 0 1 .168.285l.154.377a1.2 1.2 0 0 1 .077.307 2.354 2.354 0 0 1-.767 1.964 3.05 3.05 0 0 1-2.098.684zm-12.767-5.49c.383 0 .758.019 1.118.05a36.038 36.038 0 0 1 8.155 2.119c.994.348 1.855.649 2.409.778a3.778 3.778 0 0 0 1.34.136c-.6-.408-2.223-1.24-6.418-2.393-3.614-.991-6.066-2.6-7.293-4.781a5.666 5.666 0 0 1-.773-3.145 2.144 2.144 0 0 1 .008-.439v-7.68a3.342 3.342 0 0 0-2.331 1.285v14.936a7.7 7.7 0 0 1 3.785-.866z" class="cls-2" data-name="Path 53278" transform="translate(4342.239 -6366.194)"/>
            <path id="Path_53279" d="M-4310.971 6537.335h-.042a1.2 1.2 0 0 1-1.155-1.184c-.042-.1-.273-.355-.95-.57a4.858 4.858 0 0 0-2.8.29 13.184 13.184 0 0 1-2.336.513 2.941 2.941 0 0 1-2.458-.711 2.8 2.8 0 0 1-.8-2.078 1.1 1.1 0 0 1 .085-.375 5.557 5.557 0 0 1 4.69-3.461 15.947 15.947 0 0 1 6.066.624 1.2 1.2 0 0 1 .895 1.157v4.681a1.2 1.2 0 0 1-1.195 1.114zm-1.2-1.208zm-6.928-2.259a.244.244 0 0 0 .042.08.892.892 0 0 0 .554.055 11.112 11.112 0 0 0 1.919-.432 6.944 6.944 0 0 1 4.182-.273c.078.025.155.049.23.077v-.895c-4.87-1.094-6.328.168-6.928 1.388zm93.828 3.468a1.2 1.2 0 0 1-1.2-1.113v-4.683a1.2 1.2 0 0 1 .9-1.157 15.941 15.941 0 0 1 6.065-.624 5.558 5.558 0 0 1 4.691 3.461 1.183 1.183 0 0 1 .084.375 2.791 2.791 0 0 1-.8 2.078 2.944 2.944 0 0 1-2.458.711 13.188 13.188 0 0 1-2.336-.513 4.863 4.863 0 0 0-2.8-.29c-.675.214-.906.47-.948.57a1.2 1.2 0 0 1-1.153 1.184zm1.195-1.207zm1.717-3.055a9.69 9.69 0 0 1 2.695.5 11.117 11.117 0 0 0 1.919.432.886.886 0 0 0 .556-.055.248.248 0 0 0 .04-.077c-1.143-2.275-4.292-2-6.926-1.391v.9c.076-.028.151-.052.23-.077a4.9 4.9 0 0 1 1.49-.232z" class="cls-2" data-name="Path 53279" transform="translate(4342.244 -6497.014)"/>
            <g id="Group_23675" data-name="Group 23675" transform="translate(0 26.262)">
                <path id="Path_53280" d="M-3474.978 6533.519a1.292 1.292 0 0 1-.2-.016h-.009c-.026 0-.051-.012-.077-.018l-.072-.018-.027-.009a1.2 1.2 0 0 1-.761-1.5 1.2 1.2 0 0 1 1.405-.8 1.193 1.193 0 0 1 .917 1.362 1.2 1.2 0 0 1-1.176.999z" class="cls-27" data-name="Path 53280" transform="translate(3598.099 -6524.555)"/>
                <path id="Path_53281" d="M-4297.623 6534.534a1.2 1.2 0 0 1-1.142-.841 1.173 1.173 0 0 1-.057-.356 1.2 1.2 0 0 1 .836-1.14l.049-.018a1.2 1.2 0 0 1 1.493.8 1.28 1.28 0 0 1 .049.346 1.2 1.2 0 0 1-.845 1.142l-.029.01a1.2 1.2 0 0 1-.354.057z" class="cls-27" data-name="Path 53281" transform="translate(4322.268 -6525.439)"/>
                <path id="Path_53282" d="M-4304.89 6537.478a1.2 1.2 0 0 1-1.051-.623 1.2 1.2 0 0 1 .476-1.625l.065-.034a1.194 1.194 0 0 1 1.62.49 1.177 1.177 0 0 1 .143.562 1.2 1.2 0 0 1-.632 1.058l-.047.026a1.206 1.206 0 0 1-.574.146z" class="cls-27" data-name="Path 53282" transform="translate(4328.666 -6528.011)"/>
                <path id="Path_53283" d="M-4308.013 6539.574a1.2 1.2 0 0 1-.984-.514 1.194 1.194 0 0 1-.215-.684 1.192 1.192 0 0 1 .491-.965l.034-.024a1.2 1.2 0 0 1 1.665.294 1.173 1.173 0 0 1 .218.686 1.2 1.2 0 0 1-.487.965.304.304 0 0 1-.039.027 1.191 1.191 0 0 1-.683.215z" class="cls-27" data-name="Path 53283" transform="translate(4331.415 -6529.876)"/>
                <path id="Path_53284" d="M-3471.153 6534.537a1.269 1.269 0 0 1-.358-.053l-.029-.011a1.2 1.2 0 0 1-.844-1.143 1.161 1.161 0 0 1 .051-.344 1.2 1.2 0 0 1 1.49-.8.412.412 0 0 0 .047.016 1.2 1.2 0 0 1 .84 1.141 1.193 1.193 0 0 1-.055.357 1.2 1.2 0 0 1-1.142.837z" class="cls-27" data-name="Path 53284" transform="translate(3594.759 -6525.442)"/>
                <path id="Path_53285" d="M-4311.143 6541.779a1.2 1.2 0 0 1-.89-.4 1.2 1.2 0 0 1-.306-.8 1.2 1.2 0 0 1 .4-.895c.019-.018.038-.032.058-.049l.014-.012a1.194 1.194 0 0 1 1.687.124 1.187 1.187 0 0 1 .292.78 1.2 1.2 0 0 1-.414.907l-.042.035a1.189 1.189 0 0 1-.799.31z" class="cls-27" data-name="Path 53285" transform="translate(4334.167 -6531.784)"/>
                <path id="Path_53286" d="M-3457.8 6541.778a1.188 1.188 0 0 1-.8-.306l-.039-.033a1.191 1.191 0 0 1-.415-.906 1.2 1.2 0 0 1 .293-.783 1.194 1.194 0 0 1 1.687-.122l.012.01.058.049a1.2 1.2 0 0 1 .4.895 1.191 1.191 0 0 1-.306.8 1.2 1.2 0 0 1-.89.396z" class="cls-27" data-name="Path 53286" transform="translate(3583.02 -6531.783)"/>
                <path id="Path_53287" d="M-3454.892 6544.627a1.18 1.18 0 0 1-.9-.407l-.035-.041a1.188 1.188 0 0 1-.309-.8 1.2 1.2 0 0 1 .4-.891 1.2 1.2 0 0 1 1.691.088l.052.059a1.205 1.205 0 0 1 .3.794 1.185 1.185 0 0 1-.407.9 1.2 1.2 0 0 1-.792.298z" class="cls-27" data-name="Path 53287" transform="translate(3580.451 -6534.286)"/>
                <path id="Path_53288" d="M-3464.062 6537.477a1.2 1.2 0 0 1-.573-.146l-.045-.025a1.2 1.2 0 0 1-.634-1.059 1.2 1.2 0 0 1 .142-.562 1.2 1.2 0 0 1 1.619-.49l.067.035a1.2 1.2 0 0 1 .622 1.053 1.194 1.194 0 0 1-.146.572 1.2 1.2 0 0 1-1.052.622z" class="cls-27" data-name="Path 53288" transform="translate(3588.534 -6528.012)"/>
                <path id="Path_53289" d="M-3460.609 6539.574a1.187 1.187 0 0 1-.691-.22c-.008-.006-.019-.013-.029-.022a1.2 1.2 0 0 1-.49-.964 1.194 1.194 0 0 1 .216-.683 1.2 1.2 0 0 1 1.667-.3.42.42 0 0 0 .037.026 1.2 1.2 0 0 1 .487.966 1.19 1.19 0 0 1-.22.688 1.194 1.194 0 0 1-.977.509z" class="cls-27" data-name="Path 53289" transform="translate(3585.458 -6529.877)"/>
                <path id="Path_53290" d="M-4293.575 6533.517a1.2 1.2 0 0 1-1.18-1 1.363 1.363 0 0 1-.016-.2 1.2 1.2 0 0 1 .925-1.165 1.2 1.2 0 0 1 1.41.787 1.2 1.2 0 0 1 .063.379 1.2 1.2 0 0 1-.818 1.136 1.665 1.665 0 0 1-.186.045 1.209 1.209 0 0 1-.198.018z" class="cls-27" data-name="Path 53290" transform="translate(4318.703 -6524.553)"/>
                <path id="Path_53291" d="M-4316.545 6550.569l-1.064-.547-1.059-.561c.019-.035.038-.073.058-.108a1.2 1.2 0 0 1 1.626-.469 1.2 1.2 0 0 1 .621 1.048 1.175 1.175 0 0 1-.151.578l-.031.059zm-1.064-.547z" class="cls-27" data-name="Path 53291" transform="translate(4339.739 -6540.058)"/>
                <path id="Path_53292" d="M-3450.253 6551.217a1.2 1.2 0 0 1-1.062-.645l-.034-.064a1.188 1.188 0 0 1-.149-.575 1.2 1.2 0 0 1 .62-1.051 1.2 1.2 0 0 1 1.626.472l.06.113a1.18 1.18 0 0 1 .136.55 1.2 1.2 0 0 1-.643 1.063 1.183 1.183 0 0 1-.554.137z" class="cls-27" data-name="Path 53292" transform="translate(3576.374 -6540.056)"/>
                <path id="Path_53293" d="M-3526.617 6568.895a1.242 1.242 0 0 1-1.187-.981 3.744 3.744 0 0 1-.01-1.445 1.2 1.2 0 0 1 1.284-.983 1.2 1.2 0 0 1 1.093 1.191v.923a1.159 1.159 0 0 1-.983 1.278.961.961 0 0 1-.197.017zm1.179-1.248z" class="cls-27" data-name="Path 53293" transform="translate(3643.611 -6554.796)"/>
                <path id="Path_53294" d="M-3496.988 6493.785a1.185 1.185 0 0 1-.462-.093 36.321 36.321 0 0 0-23.195-2.044 11.148 11.148 0 0 1-3.544.42 4.186 4.186 0 0 1-2.951-1.522 2.318 2.318 0 0 1-.413-1.524v-.031c.018-.451.262-1.985 2.621-2.727a6.959 6.959 0 0 1 4.183.271 11.117 11.117 0 0 0 1.918.432c.37.039.527-.026.556-.055a.493.493 0 0 0 .067-.2v-8.612a1.2 1.2 0 0 1 1.1-1.2l7.868-.608a16.891 16.891 0 0 1 13.87 5.119 1.2 1.2 0 0 1 .128 1.361 1.2 1.2 0 0 1-1.232.6 9.575 9.575 0 0 0-5.674.945 16.867 16.867 0 0 1 3.587 3.692 37.152 37.152 0 0 1 2.621 4 1.2 1.2 0 0 1-.16 1.38 1.192 1.192 0 0 1-.888.396zm-14.961-5.567a38.167 38.167 0 0 1 12.05 2c-1.564-2.2-3.505-4.337-4.961-4.555a1.2 1.2 0 0 1-.975-.858 1.2 1.2 0 0 1 .384-1.243 13 13 0 0 1 5.875-2.557c-.218-.141-.45-.281-.695-.421a15.084 15.084 0 0 0-8.782-1.9l-6.764.524v7.407a2.825 2.825 0 0 1-.666 1.882 37.155 37.155 0 0 1 4.534-.279zm-13.215.975c.058.074.338.353 1.343.508a12.007 12.007 0 0 0 2.693-.4q.393-.083.824-.168c-.39-.092-.76-.2-1.107-.3a4.835 4.835 0 0 0-2.8-.289c-.675.213-.906.47-.949.569a1.71 1.71 0 0 1-.004.08zm-.023.158zm0 0zm0 0zm0 0zm.019-.213z" class="cls-2" data-name="Path 53294" transform="translate(3643.333 -6476.241)"/>
                <path id="Path_53295" d="M-4316.312 6547.625a1.19 1.19 0 0 1-.683-.214 1.2 1.2 0 0 1-.516-.985 1.191 1.191 0 0 1 .215-.681l.046-.064a1.2 1.2 0 0 1 1.667-.28 1.2 1.2 0 0 1 .283 1.67.518.518 0 0 1-.034.046 1.2 1.2 0 0 1-.978.508z" class="cls-27" data-name="Path 53295" transform="translate(4338.72 -6536.926)"/>
                <path id="Path_53296" d="M-4492.791 6493.787a1.2 1.2 0 0 1-.888-.4 1.2 1.2 0 0 1-.16-1.378 37.291 37.291 0 0 1 2.621-4 16.794 16.794 0 0 1 3.588-3.691 9.575 9.575 0 0 0-5.674-.945 1.2 1.2 0 0 1-1.233-.594 1.2 1.2 0 0 1 .131-1.361 16.9 16.9 0 0 1 13.868-5.12l7.867.608a1.2 1.2 0 0 1 1.106 1.194v8.532a.416.416 0 0 1 0 .059.4.4 0 0 0 .066.219.872.872 0 0 0 .554.055 11.028 11.028 0 0 0 1.92-.431 6.941 6.941 0 0 1 4.182-.271c2.358.741 2.6 2.274 2.623 2.727a.2.2 0 0 0 0 .03 2.326 2.326 0 0 1-.416 1.526 4.185 4.185 0 0 1-2.951 1.52 11.105 11.105 0 0 1-3.544-.42 36.343 36.343 0 0 0-23.2 2.045 1.157 1.157 0 0 1-.46.096zm2.591-12.776a13 13 0 0 1 5.874 2.557 1.2 1.2 0 0 1 .383 1.243 1.2 1.2 0 0 1-.976.857c-1.458.22-3.4 2.354-4.962 4.555a37.3 37.3 0 0 1 16.588-1.72 2.825 2.825 0 0 1-.668-1.884v-7.4l-6.761-.525a15.132 15.132 0 0 0-9.478 2.317zm20.727 8.128c.286.055.563.113.824.167a12.16 12.16 0 0 0 2.694.4c1-.156 1.285-.435 1.344-.508a.512.512 0 0 1 0-.077c-.041-.1-.271-.355-.95-.569a4.833 4.833 0 0 0-2.8.29c-.351.096-.722.203-1.113.297zm4.882.215zm0 0zm0 0zm0 0zm-.018-.215z" class="cls-2" data-name="Path 53296" transform="translate(4494.691 -6476.244)"/>
                <path id="Path_53297" d="M-4313.987 6544.623a1.188 1.188 0 0 1-.789-.3 1.2 1.2 0 0 1-.112-1.689c.024-.027.039-.046.058-.065a1.192 1.192 0 0 1 1.689-.09 1.193 1.193 0 0 1 .4.888 1.186 1.186 0 0 1-.3.8l-.041.049a1.2 1.2 0 0 1-.905.407z" class="cls-27" data-name="Path 53297" transform="translate(4336.673 -6534.284)"/>
                <path id="Path_53298" d="M-3452.489 6547.637a1.2 1.2 0 0 1-.976-.506.518.518 0 0 1-.037-.051 1.172 1.172 0 0 1-.221-.689 1.19 1.19 0 0 1 .5-.977 1.2 1.2 0 0 1 1.668.283.524.524 0 0 1 .043.06 1.18 1.18 0 0 1 .214.681 1.194 1.194 0 0 1-.514.983 1.179 1.179 0 0 1-.677.216z" class="cls-27" data-name="Path 53298" transform="translate(3578.331 -6536.94)"/>
                <path id="Path_53299" d="M-4242.33 6568.9a1.343 1.343 0 0 1-.2-.015 1.164 1.164 0 0 1-.983-1.28v-.923a1.2 1.2 0 0 1 1.092-1.192 1.2 1.2 0 0 1 1.283.985 3.7 3.7 0 0 1-.008 1.446 1.244 1.244 0 0 1-1.184.979zm-1.179-1.248z" class="cls-2" data-name="Path 53299" transform="translate(4273.584 -6554.8)"/>
            </g>
        </g>
        <path id="Path_53300" d="M-4121.96 5479.863s.985-12.388-4.221-14.042c-3.187-1.012-9.758 0-11.787-1.005s-2.131-4.885-2.131-4.885a4.571 4.571 0 0 1-.583-5.587c1.834-3.32 4.275-2.826 6.52-1.391s1.887 1.824 6.271.778 3.669-6.616 11.751-6.191 12.632 6.359 11.726 13.256-3.566 9.786-2.693 18.235-14.853.832-14.853.832z" class="cls-2" data-name="Path 53300" transform="translate(-311.029 -630.505)"/>
        <path id="Path_53301" d="M-3842.408 5542.419s2.194 1.459 6.091.615 8.662 5.609 8.662 5.609-3.766 3.681-8.3 1.723-7.381-5.103-6.453-7.947z" class="cls-2" data-name="Path 53301" transform="translate(-574.049 -714.048)"/>
        <path id="Path_53302" d="M-4133.409 5492.941s-4.085 2.2-3.18 4.559 3.149 2.882 6.038 3.057 11.012 5.125 12.333 6.064 10.645 4.318 13.62-.622a15.532 15.532 0 0 0 2.107-9.853s-2.664.883-10.75 1.231c-3.334.143-3.818-4.437-10.844-2.336a12.881 12.881 0 0 1-5.24.263l.525 1.224s-1.576-1.311-2.276-1.311a13.9 13.9 0 0 0-2.333.437s3.271-2.538 0-2.713z" class="cls-1" data-name="Path 53302" transform="translate(-315.122 -670.493)"/>
        <path id="Path_53303" d="M-4124.182 5552.7s-.22 4.554 2.59 4.554a74.038 74.038 0 0 0 7.7-.688s-3.252-2.518-5.149-2.5-4.097.183-5.141-1.366z" class="cls-1" data-name="Path 53303" transform="translate(-326.156 -723.099)"/>
        <path id="Path_53304" d="M-4113.473 5521.114s2.035-2.227 3.051-1.547-.436 2.227-1.937 2.131-1.114-.584-1.114-.584z" class="cls-2" data-name="Path 53304" transform="translate(-335.546 -693.818)"/>
        <path id="Path_53305" d="M-4050.765 5542.857s4.729 4.873 10.113 4.466 7.68-8.91 3.307-8.976-8.167 2.787-11.637 1.51a32.984 32.984 0 0 0-8.143-1.51s4.984 3.302 6.36 4.51z" class="cls-3" data-name="Path 53305" transform="translate(-385.189 -710.463)"/>
        <path id="Path_53306" d="M-3962.777 5487.243s.171 1.114 3.233.835a20.4 20.4 0 0 1 7.143 1.2s-4.612-3.432-6.528-3.432c-3.399.005-3.848 1.397-3.848 1.397z" class="cls-1" data-name="Path 53306" transform="translate(-468.242 -664.25)"/>
        <path id="Path_53307" d="M-3973.9 5609.681s11.664 8.008 12.983 29.609c0 0 1.322-3.262.716-12.984s-1.336-15.864 0-18.562c0 0-3.172 3.862-5.169 4.1s-8.53-2.163-8.53-2.163z" class="cls-1" data-name="Path 53307" transform="translate(-458.456 -771.552)"/>
        <path id="Path_53308" d="M-3979.762 5642.02s6.537 9.84 7.293 14.768c1.01 6.572-1.042 13.893-1.042 13.893s-9.118-2.963-8.208-9 5.458-8.555 1.957-19.661z" class="cls-3" data-name="Path 53308" transform="translate(-451.513 -801.726)"/>
        <g id="Group_23677" data-name="Group 23677" transform="translate(-4433.293 4847.149)">
            <path id="Path_53310" d="M-3976.295 5748.527a10.935 10.935 0 0 0-2.474-3.859 2.068 2.068 0 0 0-.48-.25c-.821 2.52-2.042 4.572-2.467 7.4a5.407 5.407 0 0 0 .119 2.219 6.55 6.55 0 0 0 .961.468c1.423.534 5.332-1.512 5.332-1.512a33.872 33.872 0 0 0-.991-4.466z" class="cls-6" data-name="Path 53310" transform="translate(3981.779 -5739.016)"/>
            <path id="Path_53311" d="M-3940.4 5699.286l-1.311 2.209a14.23 14.23 0 0 0 3.943 3.531 41.671 41.671 0 0 0-2.632-5.74z" class="cls-6" data-name="Path 53311" transform="translate(3946.508 -5699.286)"/>
        </g>
        <path id="Path_53312" d="M-4283.375 4734.508a52.682 52.682 0 0 0-18.23-3.235 52.829 52.829 0 0 0-50.446 37.164s1.025-1.062 1.025 0v6.2s.639 1.825 1.118 3.309 3.218 5.249 3.218 5.249l9.7 12.208s1.823 1.142 2.51.686.912-2.513.912-2.513 0-11.179.57-15.059a42.523 42.523 0 0 1 2.394-8.329s.577 2.055 1.371 1.938 2.962-2.563 2.962-2.563 9.517-5.576 13.691-1.595 2.04 10.253 2.357 11.749 1.376 7.468 5.78 8.364 6.4 3.287 7.041 1.2-2.772-11.6-4.2-12.074-5.533-4.35-6.021-7.641 1.572-8.613 3.681-9.239 10.861 2.5 10.861 2.5l9.482-5.511s2.425-8.666-1.332-13.146l-3.759-4.48s1.072-4.978 5.315-5.182z" class="cls-2" data-name="Path 53312" transform="translate(-125.567)"/>
        <path id="Path_53313" d="M-4089.566 5105.746a2.9 2.9 0 0 1 2.878 1.757c.956 2.011 1.871 8.536 3.107 9.165s1.74-.25 2.619 1.131 4.52 4.427 4.583 5.916a12.5 12.5 0 0 0 1.944 5.456c1.005 1.433 4.423.679 5.036 2.438s.114 5.649-2.147 7.281-6.78 1.255-8.663-1-5.678-4.645-6.479-10.418-1.689-8.664-2.878-10.547-1.825-10.676 0-11.179z" class="cls-2" data-name="Path 53313" transform="translate(-355.625 -329.638)"/>
        <path id="Path_53314" d="M-3919.369 5328.809s-3.176.865-3.442 2.485a4.084 4.084 0 0 0 0 2.151 5.425 5.425 0 0 1-2.62 0c-.956-.4-2.265 1.062-2.265 1.062a2.713 2.713 0 0 1 2.265.794c1.3 1.06 3.912.53 3.912.53s3.086 2.992 4.011 2.688 6.49-.834 6.49-.834 3.8-5.362 5.351-5.924 4.1 1.318 5.486 1.318 6.23-2.131 7.012-4.271a15.512 15.512 0 0 0 .63-5.109 73.585 73.585 0 0 0-7.642 2.344c-1.588.78-2.583 1.1-3.57.158s-2.531-.783-3.872-.314-4.008.937-4.863 2.188-2.521.625-3.719.47a12.16 12.16 0 0 0-3.164.264z" class="cls-2" data-name="Path 53314" transform="translate(-499.125 -521.51)"/>
        <path id="Path_53315" d="M-3722.861 5299.838a2.7 2.7 0 0 0 3 1.095c1.852-.626 5.292-2.189 5.292-3.127s-2.664-2.971-8.292 2.032z" class="cls-2" data-name="Path 53315" transform="translate(-679.44 -497.649)"/>
        <path id="Path_53316" d="M-3835.328 5034.886a9.719 9.719 0 0 1-7.365-1.071c-3.329-2.225-8.167-1.941-8.167-1.941l-1.887-3.621s.989 1.941 3.746-5.48 1.764-11.425 3.26-12.761 6.1-.889 5.914-4 5.624-3.577 5.624-3.577l1.146 1.577s-.9 6-1.146 7.117-2.449 1.783.762 3.673 4.529 2.779 4.529 2.779l.7 3.817s-.493 8.615-7.116 13.488z" class="cls-2" data-name="Path 53316" transform="translate(-565.103 -238.696)"/>
        <path id="Path_53317" d="M-3620.062 5063.64s-4.523 3.958-4.4 6.775-.207 9.274-.207 9.274 1.474 4.838 2.195 2.141.964-3.988.964-3.988 5.845 5.026 6.214 3.988-3.137-6.385-3.137-6.385l3.164-4.246s-4.31-2.4-4.567-1.843.725-4.428 2.54-4.428 4.03.562 4.03-1.288a2.935 2.935 0 0 0-1.477-2.587s-.675 2.407-5.319 2.587z" class="cls-2" data-name="Path 53317" transform="translate(-765.878 -290.302)"/>
        <path id="Path_53318" d="M-3855.173 5462.553l5.662-2.355s.362-2.722 1.633-1.426.8 3.014 0 2.933a5.146 5.146 0 0 1-1.57-.472l-4.7 2.853a1.329 1.329 0 0 1-1.025-1.533z" class="cls-2" data-name="Path 53318" transform="translate(-562.965 -640.106)"/>
        <path id="Path_53319" d="M-3820.181 5557.053s-4.444-2.846-6.706-2.883a19.656 19.656 0 0 1-5.771-1.588 20.51 20.51 0 0 0 4.99-.689c1.603-.611 5.304 1.372 7.487 5.16z" class="cls-1" data-name="Path 53319" transform="translate(-582.787 -722.291)"/>
    </g>
</svg>
