<svg xmlns="http://www.w3.org/2000/svg" width="44.11" height="44.109" viewBox="0 0 44.11 44.109">
    <defs>
        <style>
            .cls-1{fill:#03a2de}
        </style>
    </defs>
    <g id="teamwork" transform="translate(.001 -.005)">
        <g id="Group_16549" data-name="Group 16549" transform="translate(16.54 .005)">
            <g id="Group_16548" data-name="Group 16548">
                <ellipse id="Ellipse_839" cx="5.514" cy="5.514" class="cls-1" data-name="Ellipse 839" rx="5.514" ry="5.514"/>
            </g>
        </g>
        <g id="Group_16551" data-name="Group 16551" transform="translate(13.784 13.789)">
            <g id="Group_16550" data-name="Group 16550">
                <path id="Path_48990" d="M176.53 172.234l-1.252-9.748a2.746 2.746 0 0 0-2.74-2.481h-1.511a1.388 1.388 0 0 0-.976.4l-1.781 1.781-1.781-1.781a1.388 1.388 0 0 0-.976-.4h-1.508a2.74 2.74 0 0 0-2.74 2.445l-1.254 9.787a1.381 1.381 0 0 0 1.367 1.552h1.489l1.152 14.06a2.747 2.747 0 0 0 2.743 2.481h3.019a2.756 2.756 0 0 0 2.746-2.506l1.15-14.035h1.486a1.375 1.375 0 0 0 1.034-.469 1.358 1.358 0 0 0 .333-1.086z" class="cls-1" data-name="Path 48990" transform="translate(-160 -160.005)"/>
            </g>
        </g>
        <g id="Group_16553" data-name="Group 16553" transform="translate(30.324 .005)">
            <g id="Group_16552" data-name="Group 16552">
                <ellipse id="Ellipse_840" cx="5.514" cy="5.514" class="cls-1" data-name="Ellipse 840" rx="5.514" ry="5.514"/>
            </g>
        </g>
        <g id="Group_16555" data-name="Group 16555" transform="translate(2.756 .005)">
            <g id="Group_16554" data-name="Group 16554">
                <path id="Path_48991" d="M37.513 0a5.514 5.514 0 1 0 5.514 5.514A5.519 5.519 0 0 0 37.513 0z" class="cls-1" data-name="Path 48991" transform="translate(-31.999 -.005)"/>
            </g>
        </g>
        <g id="Group_16557" data-name="Group 16557" transform="translate(30.674 13.789)">
            <g id="Group_16556" data-name="Group 16556">
                <path id="Path_48992" d="M369.486 172.234l-1.252-9.745a2.744 2.744 0 0 0-2.74-2.484h-1.511a1.388 1.388 0 0 0-.976.4l-1.781 1.781-1.781-1.781a1.387 1.387 0 0 0-.973-.4h-1.511a2.628 2.628 0 0 0-.488.091 5.365 5.365 0 0 1 .717 2.073l1.249 9.715a4.125 4.125 0 0 1-1.009 3.27 4 4 0 0 1-1.367.97l.915 8.968a2.747 2.747 0 0 0 2.743 2.481h3.019a2.756 2.756 0 0 0 2.746-2.506l1.147-11.278h1.486a1.375 1.375 0 0 0 1.034-.469 1.358 1.358 0 0 0 .333-1.086z" class="cls-1" data-name="Path 48992" transform="translate(-356.063 -160.005)"/>
            </g>
        </g>
        <g id="Group_16559" data-name="Group 16559" transform="translate(-.001 13.789)">
            <g id="Group_16558" data-name="Group 16558">
                <path id="Path_48993" d="M12.058 175.14a4.129 4.129 0 0 1-1-3.25l1.254-9.789a5.1 5.1 0 0 1 .688-2.008 2.593 2.593 0 0 0-.463-.088h-1.51a1.388 1.388 0 0 0-.976.4l-1.781 1.783-1.781-1.781a1.387 1.387 0 0 0-.973-.4H4a2.74 2.74 0 0 0-2.74 2.445l-1.25 9.785a1.381 1.381 0 0 0 1.367 1.552h1.489l1.152 11.3a2.747 2.747 0 0 0 2.743 2.481H9.78a2.756 2.756 0 0 0 2.746-2.506l.915-8.946a4.134 4.134 0 0 1-1.383-.978z" class="cls-1" data-name="Path 48993" transform="translate(.001 -160.005)"/>
            </g>
        </g>
    </g>
</svg>
