<svg xmlns="http://www.w3.org/2000/svg" viewBox="0 0 106.25 127.69"><defs><style>.\38 fd9a63e-db49-4548-95db-79f96ccc6e46{fill:#008ad3;}.\36 4596a23-f1ed-41c1-a1cf-2fa74956ecd9{fill:#ffe200;}</style></defs><title>Asset 1</title><g id="0f3dad82-d5d0-4eaa-848f-b8f1d4018570" data-name="Layer 2"><g id="1ba11861-5bcd-4878-887c-a26b930c6efb" data-name="Layer 1"><g id="0dda8f23-1d45-4210-8111-22c82e3e10ee" data-name="Group 23437"><g id="121aa189-99f3-4ea5-b864-010feed04bae" data-name="Group 23435"><path id="4cf00f77-27d7-4390-bb73-19ef3b4925aa" data-name="Path 52856" class="8fd9a63e-db49-4548-95db-79f96ccc6e46" d="M78.09,17.44a.21.21,0,0,0,0-.06L69.83,1.6a3.08,3.08,0,0,0-5.46,2.84L68.83,13A53.11,53.11,0,0,0,3.53,82.77a3.08,3.08,0,0,0,5.74-2.21A47,47,0,0,1,68.16,19.23L58.07,24.5a3.08,3.08,0,0,0,2.52,5.6l.32-.15,18.63-9.72Z"/><path id="79512eb4-e44b-4f40-9e78-2cee7ee3e773" data-name="Path 52857" class="64596a23-f1ed-41c1-a1cf-2fa74956ecd9" d="M98.75,42.92a3.08,3.08,0,0,0-1.77,4,47,47,0,0,1-54.17,62.66l7.7-4a3.08,3.08,0,1,0-2.84-5.46l-13.93,7.27a3.09,3.09,0,0,0-.83.44L30.58,109l8.91,17.08a3.08,3.08,0,0,0,5.46-2.84l-4.08-7.81A53.13,53.13,0,0,0,102.73,44.7a3.08,3.08,0,0,0-4-1.78h0Z"/></g><g id="bceead86-640e-479a-83f3-cb74457280c0" data-name="Group 23436"><path id="af92457b-159c-4fc0-b50c-1ad11fbe0e82" data-name="Path 52858" class="8fd9a63e-db49-4548-95db-79f96ccc6e46" d="M58.51,37.65a1.16,1.16,0,1,0-1,1.33,1.16,1.16,0,0,0,1-1.33M54,93l0-50.31h0v-.93l18,10.4,0,22.76L67.9,77.24l-.14-22.66L64.94,53v26l-4,2.31V50.64l-2.7-1.56,0,36.77,16.28-9.38a.19.19,0,0,0,.09-.15l0-25.63a.18.18,0,0,0-.09-.16l-16-9.15a4,4,0,0,1-.59.14,3.74,3.74,0,1,1,3.14-3.35l16.26,9.29a3,3,0,0,1,1.36,2.36l0,27.37a2.7,2.7,0,0,1-.39,1.35,2.75,2.75,0,0,1-1,1Z"/><path id="2a99cd27-a0f5-413d-a7e9-f536009c7116" data-name="Path 52859" class="8fd9a63e-db49-4548-95db-79f96ccc6e46" d="M48.91,89.52a1.15,1.15,0,1,0-1.26,1,1.15,1.15,0,0,0,1.26-1h0m-1.53,3.64A3.77,3.77,0,0,1,44,89.22L27.93,79.94a2.94,2.94,0,0,1-1.36-2.35l0-27.37a2.94,2.94,0,0,1,1.36-2.36L51.08,34.44l.18,48.19,0,3-4.14-2.39V65.6h-9.6V77.72l-4.24-2.45,0-22.76,4.26-2.4V61.52h9.6l0-20.1L30.67,50.94a.17.17,0,0,0-.09.16l0,25.63a.18.18,0,0,0,.09.15l15.65,9a3.77,3.77,0,1,1,1,7.25"/></g></g></g></g></svg>