<svg height="47.819" viewBox="0 0 48 47.819" width="48" xmlns="http://www.w3.org/2000/svg"><g fill="#008ad3"><path d="m2291 1000.479a36.985 36.985 0 0 1 1.783-5.648c3.01-6.066 8.106-9.086 14.8-9.244 6-.141 12-.028 18.007-.031 1.407 0 1.421-.021 1.428-1.431a18.089 18.089 0 0 1 .049-2.87 2.153 2.153 0 0 1 .965-1.446 1.788 1.788 0 0 1 1.587.366c2.985 2.891 5.915 5.838 8.831 8.8a1.5 1.5 0 0 1 -.049 2.358c-2.895 2.932-5.8 5.859-8.763 8.716a1.956 1.956 0 0 1 -1.707.323 1.928 1.928 0 0 1 -.864-1.4 24.244 24.244 0 0 1 -.043-3.4c.018-.716-.248-1.03-.99-1.028-6.074.016-12.148-.044-18.22.038a7.391 7.391 0 0 0 -7.173 4.614 8.074 8.074 0 0 0 -.537 2.261c-.215 1.778-.623 2.2-2.437 2.215-1.491.016-2.983-.015-4.475 0a2.382 2.382 0 0 1 -2.194-1.052z" transform="translate(-2291 -979.74)"/><path d="m2291 1104.87 6.25-6.4c1.02-1.039 2.006-2.122 3.115-3.057a1.446 1.446 0 0 1 2.561 1.063 22.784 22.784 0 0 1 .038 3.3c-.016.707.24 1.031.989 1.029 6.251-.017 12.5.064 18.752-.042a7.46 7.46 0 0 0 7.3-7.107c.111-1.469.454-1.811 1.892-1.821q2.557-.018 5.115 0c1.544.014 1.958.439 1.976 1.965.069 6-4.187 12.243-10 14.654a17.023 17.023 0 0 1 -6.636 1.334c-6-.018-12 .018-18.007-.028-1.089-.008-1.47.344-1.383 1.409.072.882-.02 1.776.024 2.662a1.934 1.934 0 0 1 -.89 1.912h-1.066l-10.03-10.02z" transform="translate(-2291 -1067.926)"/></g></svg>