<svg xmlns="http://www.w3.org/2000/svg" viewBox="0 0 20.76 23.92"><defs><style>.\31 1e5efa1-4385-48df-ba44-4c573e08c073{fill:#d9d9d9;}</style></defs><title>Asset 1</title><g id="8b69eea9-5f95-4320-8df0-72ec0cea988c" data-name="Layer 2"><g id="e8dc3f3a-f107-4de5-b459-c0916168fd5b" data-name="Layer 1"><g id="8d94e586-0a86-4320-9ce2-33da819a0237" data-name="Group 23569"><g id="37fdef0b-5d03-4da1-9aa2-b961b8ca65b3" data-name="Group 23074"><g id="40bb4e04-1979-49ea-a6e8-369f986a14fd" data-name="Group 23038"><g id="bfeda547-6d35-4f4a-b2b4-679e0a8769d2" data-name="Group 22657"><path id="2d12ed62-50c7-4a2f-9cfb-c1107c5dfc3e" data-name="Path 51423" class="11e5efa1-4385-48df-ba44-4c573e08c073" d="M13.67,13.58v3.72a3.28,3.28,0,0,1-6.57,0V13.58c-4.12.7-7.1,2.69-7.1,5,0,2.93,4.65,5.31,10.38,5.31s10.38-2.38,10.38-5.31C20.77,16.27,17.79,14.28,13.67,13.58Z"/></g></g></g><g id="5413df0c-e54b-4897-a083-0d710304e15c" data-name="Group 23076"><path id="473458a5-7784-4feb-a248-4199cca73f84" data-name="Path 51424" class="11e5efa1-4385-48df-ba44-4c573e08c073" d="M18.47,7.58,11.23.34a1.15,1.15,0,0,0-.38-.25A1.18,1.18,0,0,0,10.5,0l-.1,0-.1,0A1.18,1.18,0,0,0,10,.09a1.17,1.17,0,0,0-.38.25L2.34,7.58A1.17,1.17,0,1,0,4,9.22L9.24,4V17.29a1.17,1.17,0,1,0,2.33,0V4l5.25,5.24a1.17,1.17,0,1,0,1.65-1.65Z"/></g></g></g></g></svg>