<svg viewBox="0 0 20.76 23.92" xmlns="http://www.w3.org/2000/svg"><g fill="#d9d9d9"><path d="m2.32 10.88 7.24 7.23a1.15 1.15 0 0 0 .38.25 1.18 1.18 0 0 0 .35.07h.1.1a1.18 1.18 0 0 0 .35-.07 1.17 1.17 0 0 0 .38-.25l7.23-7.23a1.17 1.17 0 1 0 -1.65-1.65l-5.24 5.24v-13.3a1.17 1.17 0 1 0 -2.33 0v13.31l-5.23-5.24a1.17 1.17 0 1 0 -1.65 1.65z"/><path d="m17.54 14.78-4.84 4.84a3.24 3.24 0 0 1 -1.08.72 3.09 3.09 0 0 1 -.78.2h-.17-.3a2.26 2.26 0 0 1 -.43 0 3.12 3.12 0 0 1 -.82-.21 3.29 3.29 0 0 1 -1.07-.71l-4.83-4.84c-2 1-3.22 2.33-3.22 3.84 0 2.93 4.65 5.31 10.38 5.31s10.38-2.38 10.38-5.31c0-1.51-1.24-2.87-3.22-3.84z"/></g></svg>